{
	"asset":{
		"generator":"Khronos glTF Blender I/O v4.3.47",
		"version":"2.0"
	},
	"extensionsUsed":[
		"KHR_lights_punctual"
	],
	"extensionsRequired":[
		"KHR_lights_punctual"
	],
	"extensions":{
		"KHR_lights_punctual":{
			"lights":[
				{
					"color":[
						1,
						1,
						1
					],
					"intensity":3,
					"type":"directional",
					"name":"Sun"
				},
				{
					"color":[
						1,
						1,
						1
					],
					"intensity":3,
					"type":"directional",
					"name":"Sun.001"
				}
			]
		}
	},
	"scene":0,
	"scenes":[
		{
			"extras":{
				"td":{
					"density_set":"0.64",
					"uv_space":"33.4826 %",
					"density":"0.640"
				}
			},
			"name":"Scene",
			"nodes":[
				0,
				1,
				2,
				3,
				4,
				5,
				6,
				7,
				8,
				9,
				10,
				11,
				12,
				13,
				14,
				15,
				16,
				17
			]
		}
	],
	"nodes":[
		{
			"mesh":0,
			"name":"Cube"
		},
		{
			"mesh":1,
			"name":"Orgin_Cube"
		},
		{
			"mesh":2,
			"name":"Circle",
			"scale":[
				0.7042572498321533,
				0.7042572498321533,
				0.7042572498321533
			]
		},
		{
			"mesh":3,
			"name":"Circle.001",
			"rotation":[
				0.7071068286895752,
				0,
				0,
				0.7071068286895752
			],
			"scale":[
				0.7042572498321533,
				0.7042572498321533,
				0.7042572498321533
			]
		},
		{
			"mesh":4,
			"name":"Circle.002",
			"rotation":[
				0.5,
				0.5,
				-0.5,
				0.5
			],
			"scale":[
				0.7042572498321533,
				0.7042572498321533,
				0.7042572498321533
			]
		},
		{
			"mesh":5,
			"name":"Circle.005",
			"rotation":[
				0.5,
				0.5,
				-0.5,
				0.5
			],
			"scale":[
				0.7042572498321533,
				0.7042572498321533,
				0.7042572498321533
			]
		},
		{
			"mesh":6,
			"name":"Cube.001"
		},
		{
			"mesh":7,
			"name":"Cube.002"
		},
		{
			"mesh":8,
			"name":"Circle.003",
			"scale":[
				0.7042572498321533,
				0.7042572498321533,
				0.7042572498321533
			]
		},
		{
			"mesh":9,
			"name":"Circle.004",
			"scale":[
				0.7042572498321533,
				0.7042572498321533,
				0.7042572498321533
			]
		},
		{
			"mesh":10,
			"name":"Circle.006",
			"rotation":[
				0.7071068286895752,
				0,
				0,
				0.7071068286895752
			],
			"scale":[
				0.7042572498321533,
				0.7042572498321533,
				0.7042572498321533
			]
		},
		{
			"mesh":11,
			"name":"Circle.007",
			"rotation":[
				0.7071068286895752,
				0,
				0,
				0.7071068286895752
			],
			"scale":[
				0.7042572498321533,
				0.7042572498321533,
				0.7042572498321533
			]
		},
		{
			"mesh":12,
			"name":"Circle.008",
			"rotation":[
				0,
				0,
				-0.7071068286895752,
				0.7071068286895752
			],
			"scale":[
				0.7042572498321533,
				0.7042572498321533,
				0.7042572498321533
			]
		},
		{
			"mesh":13,
			"name":"Circle.009",
			"rotation":[
				0,
				0,
				-0.7071068286895752,
				0.7071068286895752
			],
			"scale":[
				0.7042572498321533,
				0.7042572498321533,
				0.7042572498321533
			]
		},
		{
			"mesh":14,
			"name":"Cube.003"
		},
		{
			"extensions":{
				"KHR_lights_punctual":{
					"light":0
				}
			},
			"name":"Sun",
			"rotation":[
				-0.7071068286895752,
				0,
				0,
				0.7071068286895752
			]
		},
		{
			"extensions":{
				"KHR_lights_punctual":{
					"light":1
				}
			},
			"name":"Sun.001",
			"rotation":[
				-0.6046878099441528,
				-0.6046878695487976,
				0.36654147505760193,
				0.36654147505760193
			],
			"translation":[
				-2.598706007003784,
				0,
				0
			]
		},
		{
			"camera":0,
			"name":"Camera",
			"rotation":[
				-0.12941782176494598,
				-0.8692836761474609,
				-0.31090664863586426,
				0.36184796690940857
			],
			"translation":[
				-3.0619399547576904,
				3.3992204666137695,
				-3.0494978427886963
			]
		}
	],
	"cameras":[
		{
			"name":"Camera",
			"orthographic":{
				"xmag":1.6500002145767212,
				"ymag":1.6500002145767212,
				"zfar":1000,
				"znear":0.10000000149011612
			},
			"type":"orthographic"
		}
	],
	"materials":[
		{
			"doubleSided":true,
			"name":"Cube_Module"
		}
	],
	"meshes":[
		{
			"name":"Cube",
			"primitives":[
				{
					"attributes":{
						"POSITION":0,
						"NORMAL":1,
						"TEXCOORD_0":2,
						"TANGENT":3
					},
					"indices":4,
					"material":0
				}
			]
		},
		{
			"name":"Cube.001",
			"primitives":[
				{
					"attributes":{
						"POSITION":5,
						"NORMAL":6,
						"TEXCOORD_0":7,
						"TANGENT":8
					},
					"indices":4,
					"material":0
				}
			]
		},
		{
			"name":"Circle",
			"primitives":[
				{
					"attributes":{
						"POSITION":9,
						"NORMAL":10,
						"TEXCOORD_0":11
					},
					"indices":12
				}
			]
		},
		{
			"name":"Circle.001",
			"primitives":[
				{
					"attributes":{
						"POSITION":13,
						"NORMAL":14,
						"TEXCOORD_0":15
					},
					"indices":12
				}
			]
		},
		{
			"name":"Circle.002",
			"primitives":[
				{
					"attributes":{
						"POSITION":16,
						"NORMAL":17,
						"TEXCOORD_0":18
					},
					"indices":12
				}
			]
		},
		{
			"name":"Circle.005",
			"primitives":[
				{
					"attributes":{
						"POSITION":19,
						"NORMAL":20,
						"TEXCOORD_0":21
					},
					"indices":22
				}
			]
		},
		{
			"name":"Cube.002",
			"primitives":[
				{
					"attributes":{
						"POSITION":23,
						"NORMAL":24,
						"TEXCOORD_0":25
					},
					"indices":26,
					"material":0
				}
			]
		},
		{
			"name":"Cube.003",
			"primitives":[
				{
					"attributes":{
						"POSITION":27,
						"NORMAL":28,
						"TEXCOORD_0":29
					},
					"indices":30,
					"material":0
				}
			]
		},
		{
			"name":"Circle.006",
			"primitives":[
				{
					"attributes":{
						"POSITION":31,
						"NORMAL":32,
						"TEXCOORD_0":33,
						"TANGENT":34
					},
					"indices":35
				}
			]
		},
		{
			"name":"Circle.007",
			"primitives":[
				{
					"attributes":{
						"POSITION":36,
						"NORMAL":37,
						"TEXCOORD_0":38,
						"TANGENT":39
					},
					"indices":40
				}
			]
		},
		{
			"name":"Circle.008",
			"primitives":[
				{
					"attributes":{
						"POSITION":41,
						"NORMAL":42,
						"TEXCOORD_0":43,
						"TANGENT":44
					},
					"indices":45
				}
			]
		},
		{
			"name":"Circle.009",
			"primitives":[
				{
					"attributes":{
						"POSITION":46,
						"NORMAL":47,
						"TEXCOORD_0":48,
						"TANGENT":49
					},
					"indices":50
				}
			]
		},
		{
			"name":"Circle.010",
			"primitives":[
				{
					"attributes":{
						"POSITION":51,
						"NORMAL":52,
						"TEXCOORD_0":53,
						"TANGENT":54
					},
					"indices":55
				}
			]
		},
		{
			"name":"Circle.011",
			"primitives":[
				{
					"attributes":{
						"POSITION":56,
						"NORMAL":57,
						"TEXCOORD_0":58,
						"TANGENT":59
					},
					"indices":60
				}
			]
		},
		{
			"name":"Cube.004",
			"primitives":[
				{
					"attributes":{
						"POSITION":61,
						"NORMAL":62,
						"TEXCOORD_0":63
					},
					"indices":64,
					"material":0
				}
			]
		}
	],
	"accessors":[
		{
			"bufferView":0,
			"componentType":5126,
			"count":96,
			"max":[
				1,
				1,
				1
			],
			"min":[
				-1,
				-1,
				-1
			],
			"type":"VEC3"
		},
		{
			"bufferView":1,
			"componentType":5126,
			"count":96,
			"type":"VEC3"
		},
		{
			"bufferView":2,
			"componentType":5126,
			"count":96,
			"type":"VEC2"
		},
		{
			"bufferView":3,
			"componentType":5126,
			"count":96,
			"type":"VEC4"
		},
		{
			"bufferView":4,
			"componentType":5123,
			"count":132,
			"type":"SCALAR"
		},
		{
			"bufferView":5,
			"componentType":5126,
			"count":96,
			"max":[
				1,
				1,
				1
			],
			"min":[
				-1,
				-1,
				-1
			],
			"type":"VEC3"
		},
		{
			"bufferView":6,
			"componentType":5126,
			"count":96,
			"type":"VEC3"
		},
		{
			"bufferView":7,
			"componentType":5126,
			"count":96,
			"type":"VEC2"
		},
		{
			"bufferView":8,
			"componentType":5126,
			"count":96,
			"type":"VEC4"
		},
		{
			"bufferView":9,
			"componentType":5126,
			"count":304,
			"max":[
				1,
				1.7039227485656738,
				1
			],
			"min":[
				-1,
				-1.703922986984253,
				-1
			],
			"type":"VEC3"
		},
		{
			"bufferView":10,
			"componentType":5126,
			"count":304,
			"type":"VEC3"
		},
		{
			"bufferView":11,
			"componentType":5126,
			"count":304,
			"type":"VEC2"
		},
		{
			"bufferView":12,
			"componentType":5123,
			"count":948,
			"type":"SCALAR"
		},
		{
			"bufferView":13,
			"componentType":5126,
			"count":304,
			"max":[
				1,
				1.7039227485656738,
				1.0000001192092896
			],
			"min":[
				-1,
				-1.7039227485656738,
				-1
			],
			"type":"VEC3"
		},
		{
			"bufferView":14,
			"componentType":5126,
			"count":304,
			"type":"VEC3"
		},
		{
			"bufferView":15,
			"componentType":5126,
			"count":304,
			"type":"VEC2"
		},
		{
			"bufferView":16,
			"componentType":5126,
			"count":304,
			"max":[
				1.0000001192092896,
				1.7039227485656738,
				1.0000001192092896
			],
			"min":[
				-1,
				-1.7039227485656738,
				-1
			],
			"type":"VEC3"
		},
		{
			"bufferView":17,
			"componentType":5126,
			"count":304,
			"type":"VEC3"
		},
		{
			"bufferView":18,
			"componentType":5126,
			"count":304,
			"type":"VEC2"
		},
		{
			"bufferView":19,
			"componentType":5126,
			"count":2084,
			"max":[
				1.7863473892211914,
				1.786347508430481,
				1.7863476276397705
			],
			"min":[
				-1.7863473892211914,
				-1.786347508430481,
				-1.7863473892211914
			],
			"type":"VEC3"
		},
		{
			"bufferView":20,
			"componentType":5126,
			"count":2084,
			"type":"VEC3"
		},
		{
			"bufferView":21,
			"componentType":5126,
			"count":2084,
			"type":"VEC2"
		},
		{
			"bufferView":22,
			"componentType":5123,
			"count":6768,
			"type":"SCALAR"
		},
		{
			"bufferView":23,
			"componentType":5126,
			"count":3515,
			"max":[
				1.0755351781845093,
				1.0762385129928589,
				1.0762385129928589
			],
			"min":[
				-1.0755351781845093,
				-1.0762385129928589,
				-1.0762385129928589
			],
			"type":"VEC3"
		},
		{
			"bufferView":24,
			"componentType":5126,
			"count":3515,
			"type":"VEC3"
		},
		{
			"bufferView":25,
			"componentType":5126,
			"count":3515,
			"type":"VEC2"
		},
		{
			"bufferView":26,
			"componentType":5123,
			"count":6240,
			"type":"SCALAR"
		},
		{
			"bufferView":27,
			"componentType":5126,
			"count":260,
			"max":[
				1.0800000429153442,
				1.0800000429153442,
				-0.30000001192092896
			],
			"min":[
				0.30000001192092896,
				0.30000001192092896,
				-1.0800000429153442
			],
			"type":"VEC3"
		},
		{
			"bufferView":28,
			"componentType":5126,
			"count":260,
			"type":"VEC3"
		},
		{
			"bufferView":29,
			"componentType":5126,
			"count":260,
			"type":"VEC2"
		},
		{
			"bufferView":30,
			"componentType":5123,
			"count":456,
			"type":"SCALAR"
		},
		{
			"bufferView":31,
			"componentType":5126,
			"count":2908,
			"max":[
				1.024999976158142,
				1.7287474870681763,
				1.024999976158142
			],
			"min":[
				-1.024999976158142,
				-1.7287477254867554,
				-1.024999976158142
			],
			"type":"VEC3"
		},
		{
			"bufferView":32,
			"componentType":5126,
			"count":2908,
			"type":"VEC3"
		},
		{
			"bufferView":33,
			"componentType":5126,
			"count":2908,
			"type":"VEC2"
		},
		{
			"bufferView":34,
			"componentType":5126,
			"count":2908,
			"type":"VEC4"
		},
		{
			"bufferView":35,
			"componentType":5123,
			"count":7584,
			"type":"SCALAR"
		},
		{
			"bufferView":36,
			"componentType":5126,
			"count":2040,
			"max":[
				1.0398890972137451,
				1.7439227104187012,
				1.0398890972137451
			],
			"min":[
				-1.0398890972137451,
				-1.7439229488372803,
				-1.0398890972137451
			],
			"type":"VEC3"
		},
		{
			"bufferView":37,
			"componentType":5126,
			"count":2040,
			"type":"VEC3"
		},
		{
			"bufferView":38,
			"componentType":5126,
			"count":2040,
			"type":"VEC2"
		},
		{
			"bufferView":39,
			"componentType":5126,
			"count":2040,
			"type":"VEC4"
		},
		{
			"bufferView":40,
			"componentType":5123,
			"count":5856,
			"type":"SCALAR"
		},
		{
			"bufferView":41,
			"componentType":5126,
			"count":2926,
			"max":[
				1.024999976158142,
				1.7287474870681763,
				1.0250000953674316
			],
			"min":[
				-1.024999976158142,
				-1.7287474870681763,
				-1.024999976158142
			],
			"type":"VEC3"
		},
		{
			"bufferView":42,
			"componentType":5126,
			"count":2926,
			"type":"VEC3"
		},
		{
			"bufferView":43,
			"componentType":5126,
			"count":2926,
			"type":"VEC2"
		},
		{
			"bufferView":44,
			"componentType":5126,
			"count":2926,
			"type":"VEC4"
		},
		{
			"bufferView":45,
			"componentType":5123,
			"count":7584,
			"type":"SCALAR"
		},
		{
			"bufferView":46,
			"componentType":5126,
			"count":2067,
			"max":[
				1.0398890972137451,
				1.7439227104187012,
				1.0398892164230347
			],
			"min":[
				-1.0398890972137451,
				-1.7439227104187012,
				-1.0398890972137451
			],
			"type":"VEC3"
		},
		{
			"bufferView":47,
			"componentType":5126,
			"count":2067,
			"type":"VEC3"
		},
		{
			"bufferView":48,
			"componentType":5126,
			"count":2067,
			"type":"VEC2"
		},
		{
			"bufferView":49,
			"componentType":5126,
			"count":2067,
			"type":"VEC4"
		},
		{
			"bufferView":50,
			"componentType":5123,
			"count":5856,
			"type":"SCALAR"
		},
		{
			"bufferView":51,
			"componentType":5126,
			"count":2890,
			"max":[
				1.024999976158142,
				1.7287474870681763,
				1.024999976158142
			],
			"min":[
				-1.0250000953674316,
				-1.7287474870681763,
				-1.024999976158142
			],
			"type":"VEC3"
		},
		{
			"bufferView":52,
			"componentType":5126,
			"count":2890,
			"type":"VEC3"
		},
		{
			"bufferView":53,
			"componentType":5126,
			"count":2890,
			"type":"VEC2"
		},
		{
			"bufferView":54,
			"componentType":5126,
			"count":2890,
			"type":"VEC4"
		},
		{
			"bufferView":55,
			"componentType":5123,
			"count":7584,
			"type":"SCALAR"
		},
		{
			"bufferView":56,
			"componentType":5126,
			"count":2067,
			"max":[
				1.0398890972137451,
				1.7439227104187012,
				1.0398890972137451
			],
			"min":[
				-1.0398892164230347,
				-1.7439227104187012,
				-1.0398890972137451
			],
			"type":"VEC3"
		},
		{
			"bufferView":57,
			"componentType":5126,
			"count":2067,
			"type":"VEC3"
		},
		{
			"bufferView":58,
			"componentType":5126,
			"count":2067,
			"type":"VEC2"
		},
		{
			"bufferView":59,
			"componentType":5126,
			"count":2067,
			"type":"VEC4"
		},
		{
			"bufferView":60,
			"componentType":5123,
			"count":5856,
			"type":"SCALAR"
		},
		{
			"bufferView":61,
			"componentType":5126,
			"count":16192,
			"max":[
				1.2399998903274536,
				1.2400000095367432,
				1.2399998903274536
			],
			"min":[
				-1.2400000095367432,
				-1.2400000095367432,
				-1.2399998903274536
			],
			"type":"VEC3"
		},
		{
			"bufferView":62,
			"componentType":5126,
			"count":16192,
			"type":"VEC3"
		},
		{
			"bufferView":63,
			"componentType":5126,
			"count":16192,
			"type":"VEC2"
		},
		{
			"bufferView":64,
			"componentType":5123,
			"count":40296,
			"type":"SCALAR"
		}
	],
	"bufferViews":[
		{
			"buffer":0,
			"byteLength":1152,
			"byteOffset":0,
			"target":34962
		},
		{
			"buffer":0,
			"byteLength":1152,
			"byteOffset":1152,
			"target":34962
		},
		{
			"buffer":0,
			"byteLength":768,
			"byteOffset":2304,
			"target":34962
		},
		{
			"buffer":0,
			"byteLength":1536,
			"byteOffset":3072,
			"target":34962
		},
		{
			"buffer":0,
			"byteLength":264,
			"byteOffset":4608,
			"target":34963
		},
		{
			"buffer":0,
			"byteLength":1152,
			"byteOffset":4872,
			"target":34962
		},
		{
			"buffer":0,
			"byteLength":1152,
			"byteOffset":6024,
			"target":34962
		},
		{
			"buffer":0,
			"byteLength":768,
			"byteOffset":7176,
			"target":34962
		},
		{
			"buffer":0,
			"byteLength":1536,
			"byteOffset":7944,
			"target":34962
		},
		{
			"buffer":0,
			"byteLength":3648,
			"byteOffset":9480,
			"target":34962
		},
		{
			"buffer":0,
			"byteLength":3648,
			"byteOffset":13128,
			"target":34962
		},
		{
			"buffer":0,
			"byteLength":2432,
			"byteOffset":16776,
			"target":34962
		},
		{
			"buffer":0,
			"byteLength":1896,
			"byteOffset":19208,
			"target":34963
		},
		{
			"buffer":0,
			"byteLength":3648,
			"byteOffset":21104,
			"target":34962
		},
		{
			"buffer":0,
			"byteLength":3648,
			"byteOffset":24752,
			"target":34962
		},
		{
			"buffer":0,
			"byteLength":2432,
			"byteOffset":28400,
			"target":34962
		},
		{
			"buffer":0,
			"byteLength":3648,
			"byteOffset":30832,
			"target":34962
		},
		{
			"buffer":0,
			"byteLength":3648,
			"byteOffset":34480,
			"target":34962
		},
		{
			"buffer":0,
			"byteLength":2432,
			"byteOffset":38128,
			"target":34962
		},
		{
			"buffer":0,
			"byteLength":25008,
			"byteOffset":40560,
			"target":34962
		},
		{
			"buffer":0,
			"byteLength":25008,
			"byteOffset":65568,
			"target":34962
		},
		{
			"buffer":0,
			"byteLength":16672,
			"byteOffset":90576,
			"target":34962
		},
		{
			"buffer":0,
			"byteLength":13536,
			"byteOffset":107248,
			"target":34963
		},
		{
			"buffer":0,
			"byteLength":42180,
			"byteOffset":120784,
			"target":34962
		},
		{
			"buffer":0,
			"byteLength":42180,
			"byteOffset":162964,
			"target":34962
		},
		{
			"buffer":0,
			"byteLength":28120,
			"byteOffset":205144,
			"target":34962
		},
		{
			"buffer":0,
			"byteLength":12480,
			"byteOffset":233264,
			"target":34963
		},
		{
			"buffer":0,
			"byteLength":3120,
			"byteOffset":245744,
			"target":34962
		},
		{
			"buffer":0,
			"byteLength":3120,
			"byteOffset":248864,
			"target":34962
		},
		{
			"buffer":0,
			"byteLength":2080,
			"byteOffset":251984,
			"target":34962
		},
		{
			"buffer":0,
			"byteLength":912,
			"byteOffset":254064,
			"target":34963
		},
		{
			"buffer":0,
			"byteLength":34896,
			"byteOffset":254976,
			"target":34962
		},
		{
			"buffer":0,
			"byteLength":34896,
			"byteOffset":289872,
			"target":34962
		},
		{
			"buffer":0,
			"byteLength":23264,
			"byteOffset":324768,
			"target":34962
		},
		{
			"buffer":0,
			"byteLength":46528,
			"byteOffset":348032,
			"target":34962
		},
		{
			"buffer":0,
			"byteLength":15168,
			"byteOffset":394560,
			"target":34963
		},
		{
			"buffer":0,
			"byteLength":24480,
			"byteOffset":409728,
			"target":34962
		},
		{
			"buffer":0,
			"byteLength":24480,
			"byteOffset":434208,
			"target":34962
		},
		{
			"buffer":0,
			"byteLength":16320,
			"byteOffset":458688,
			"target":34962
		},
		{
			"buffer":0,
			"byteLength":32640,
			"byteOffset":475008,
			"target":34962
		},
		{
			"buffer":0,
			"byteLength":11712,
			"byteOffset":507648,
			"target":34963
		},
		{
			"buffer":0,
			"byteLength":35112,
			"byteOffset":519360,
			"target":34962
		},
		{
			"buffer":0,
			"byteLength":35112,
			"byteOffset":554472,
			"target":34962
		},
		{
			"buffer":0,
			"byteLength":23408,
			"byteOffset":589584,
			"target":34962
		},
		{
			"buffer":0,
			"byteLength":46816,
			"byteOffset":612992,
			"target":34962
		},
		{
			"buffer":0,
			"byteLength":15168,
			"byteOffset":659808,
			"target":34963
		},
		{
			"buffer":0,
			"byteLength":24804,
			"byteOffset":674976,
			"target":34962
		},
		{
			"buffer":0,
			"byteLength":24804,
			"byteOffset":699780,
			"target":34962
		},
		{
			"buffer":0,
			"byteLength":16536,
			"byteOffset":724584,
			"target":34962
		},
		{
			"buffer":0,
			"byteLength":33072,
			"byteOffset":741120,
			"target":34962
		},
		{
			"buffer":0,
			"byteLength":11712,
			"byteOffset":774192,
			"target":34963
		},
		{
			"buffer":0,
			"byteLength":34680,
			"byteOffset":785904,
			"target":34962
		},
		{
			"buffer":0,
			"byteLength":34680,
			"byteOffset":820584,
			"target":34962
		},
		{
			"buffer":0,
			"byteLength":23120,
			"byteOffset":855264,
			"target":34962
		},
		{
			"buffer":0,
			"byteLength":46240,
			"byteOffset":878384,
			"target":34962
		},
		{
			"buffer":0,
			"byteLength":15168,
			"byteOffset":924624,
			"target":34963
		},
		{
			"buffer":0,
			"byteLength":24804,
			"byteOffset":939792,
			"target":34962
		},
		{
			"buffer":0,
			"byteLength":24804,
			"byteOffset":964596,
			"target":34962
		},
		{
			"buffer":0,
			"byteLength":16536,
			"byteOffset":989400,
			"target":34962
		},
		{
			"buffer":0,
			"byteLength":33072,
			"byteOffset":1005936,
			"target":34962
		},
		{
			"buffer":0,
			"byteLength":11712,
			"byteOffset":1039008,
			"target":34963
		},
		{
			"buffer":0,
			"byteLength":194304,
			"byteOffset":1050720,
			"target":34962
		},
		{
			"buffer":0,
			"byteLength":194304,
			"byteOffset":1245024,
			"target":34962
		},
		{
			"buffer":0,
			"byteLength":129536,
			"byteOffset":1439328,
			"target":34962
		},
		{
			"buffer":0,
			"byteLength":80592,
			"byteOffset":1568864,
			"target":34963
		}
	],
	"buffers":[
		{
			"byteLength":1649456,
			"uri":"Cube_Module-c3c517f15f9b18b682dc4640989729bf.bin"
		}
	]
}
