{
	"asset":{
		"generator":"Khronos glTF Blender I/O v4.0.44",
		"version":"2.0"
	},
	"scene":0,
	"scenes":[
		{
			"extras":{
				"td":{
					"density_set":"1.28",
					"uv_space":"147.9160 %",
					"density":"1.280"
				}
			},
			"name":"Scene",
			"nodes":[
				0,
				1,
				2,
				3,
				4,
				5,
				6,
				7,
				8
			]
		}
	],
	"nodes":[
		{
			"mesh":0,
			"name":"Circle.030",
			"rotation":[
				-0.7071070671081543,
				0,
				0.7071065902709961,
				2.3886506994585943e-08
			]
		},
		{
			"mesh":1,
			"name":"Circle.033",
			"rotation":[
				0,
				0.7071067094802856,
				0,
				0.7071068286895752
			]
		},
		{
			"mesh":2,
			"name":"Circle.034"
		},
		{
			"mesh":3,
			"name":"Circle.024"
		},
		{
			"mesh":4,
			"name":"Circle.039",
			"rotation":[
				-1,
				0,
				0,
				4.887620548288396e-07
			],
			"scale":[
				0.7507613301277161,
				1,
				0.7507613301277161
			]
		},
		{
			"mesh":5,
			"name":"Circle.040",
			"rotation":[
				-1,
				0,
				0,
				4.887620548288396e-07
			],
			"scale":[
				0.6371247172355652,
				0.8486382365226746,
				0.6371247172355652
			]
		},
		{
			"mesh":6,
			"name":"Circle.041",
			"rotation":[
				-1,
				0,
				0,
				4.887620548288396e-07
			],
			"scale":[
				0.9156014919281006,
				0.9156014919281006,
				0.9156014919281006
			]
		},
		{
			"mesh":7,
			"name":"Circle.001",
			"rotation":[
				-1,
				0,
				0,
				4.887620548288396e-07
			],
			"scale":[
				0.9156014919281006,
				0.9156014919281006,
				0.9156014919281006
			]
		},
		{
			"mesh":8,
			"name":"Circle.005"
		}
	],
	"materials":[
		{
			"alphaMode":"BLEND",
			"doubleSided":true,
			"name":"Cube_Module.001",
			"pbrMetallicRoughness":{}
		}
	],
	"meshes":[
		{
			"name":"Circle.116",
			"primitives":[
				{
					"attributes":{
						"POSITION":0,
						"NORMAL":1,
						"TEXCOORD_0":2,
						"TANGENT":3
					},
					"indices":4,
					"material":0
				}
			]
		},
		{
			"name":"Circle.119",
			"primitives":[
				{
					"attributes":{
						"POSITION":5,
						"NORMAL":6,
						"TEXCOORD_0":7,
						"TANGENT":8
					},
					"indices":9,
					"material":0
				}
			]
		},
		{
			"name":"Circle.120",
			"primitives":[
				{
					"attributes":{
						"POSITION":10,
						"NORMAL":11,
						"TEXCOORD_0":12
					},
					"indices":13,
					"material":0
				}
			]
		},
		{
			"name":"Circle.122",
			"primitives":[
				{
					"attributes":{
						"POSITION":14,
						"NORMAL":15,
						"TEXCOORD_0":16
					},
					"indices":17,
					"material":0
				}
			]
		},
		{
			"name":"Circle.134",
			"primitives":[
				{
					"attributes":{
						"POSITION":18,
						"NORMAL":19,
						"TEXCOORD_0":20,
						"TANGENT":21
					},
					"indices":22
				}
			]
		},
		{
			"name":"Circle.135",
			"primitives":[
				{
					"attributes":{
						"POSITION":23,
						"NORMAL":24,
						"TEXCOORD_0":25
					},
					"indices":26
				}
			]
		},
		{
			"name":"Circle.136",
			"primitives":[
				{
					"attributes":{
						"POSITION":27,
						"NORMAL":28,
						"TEXCOORD_0":29
					},
					"indices":30
				}
			]
		},
		{
			"name":"Circle.001",
			"primitives":[
				{
					"attributes":{
						"POSITION":31,
						"NORMAL":32,
						"TEXCOORD_0":33,
						"TANGENT":34
					},
					"indices":35
				}
			]
		},
		{
			"name":"Circle.005",
			"primitives":[
				{
					"attributes":{
						"POSITION":36,
						"NORMAL":37,
						"TEXCOORD_0":38
					},
					"indices":39,
					"material":0
				}
			]
		}
	],
	"accessors":[
		{
			"bufferView":0,
			"componentType":5126,
			"count":1239,
			"max":[
				0.6702491044998169,
				-0.017449140548706055,
				0.6702495813369751
			],
			"min":[
				-0.6702488660812378,
				-0.1702880859375,
				-0.6702484488487244
			],
			"type":"VEC3"
		},
		{
			"bufferView":1,
			"componentType":5126,
			"count":1239,
			"type":"VEC3"
		},
		{
			"bufferView":2,
			"componentType":5126,
			"count":1239,
			"type":"VEC2"
		},
		{
			"bufferView":3,
			"componentType":5126,
			"count":1239,
			"type":"VEC4"
		},
		{
			"bufferView":4,
			"componentType":5123,
			"count":1776,
			"type":"SCALAR"
		},
		{
			"bufferView":5,
			"componentType":5126,
			"count":1548,
			"max":[
				0.7441071271896362,
				0.17028844356536865,
				0.7441083788871765
			],
			"min":[
				-0.7441070079803467,
				0.0022166967391967773,
				-0.7441057562828064
			],
			"type":"VEC3"
		},
		{
			"bufferView":6,
			"componentType":5126,
			"count":1548,
			"type":"VEC3"
		},
		{
			"bufferView":7,
			"componentType":5126,
			"count":1548,
			"type":"VEC2"
		},
		{
			"bufferView":8,
			"componentType":5126,
			"count":1548,
			"type":"VEC4"
		},
		{
			"bufferView":9,
			"componentType":5123,
			"count":2256,
			"type":"SCALAR"
		},
		{
			"bufferView":10,
			"componentType":5126,
			"count":288,
			"max":[
				0.7042572498321533,
				0.24221670627593994,
				0.7042579650878906
			],
			"min":[
				-0.7042572498321533,
				0.04221665859222412,
				-0.7042566537857056
			],
			"type":"VEC3"
		},
		{
			"bufferView":11,
			"componentType":5126,
			"count":288,
			"type":"VEC3"
		},
		{
			"bufferView":12,
			"componentType":5126,
			"count":288,
			"type":"VEC2"
		},
		{
			"bufferView":13,
			"componentType":5123,
			"count":474,
			"type":"SCALAR"
		},
		{
			"bufferView":14,
			"componentType":5126,
			"count":800,
			"max":[
				0.7042572498321533,
				2.479180097579956,
				0.7042578458786011
			],
			"min":[
				-0.7042572498321533,
				0.2422165870666504,
				-0.7042567729949951
			],
			"type":"VEC3"
		},
		{
			"bufferView":15,
			"componentType":5126,
			"count":800,
			"type":"VEC3"
		},
		{
			"bufferView":16,
			"componentType":5126,
			"count":800,
			"type":"VEC2"
		},
		{
			"bufferView":17,
			"componentType":5123,
			"count":1242,
			"type":"SCALAR"
		},
		{
			"bufferView":18,
			"componentType":5126,
			"count":720,
			"max":[
				0.9897025227546692,
				-0.31089460849761963,
				0.9866238832473755
			],
			"min":[
				-0.9897025227546692,
				-0.9650256633758545,
				-0.9927812814712524
			],
			"type":"VEC3"
		},
		{
			"bufferView":19,
			"componentType":5126,
			"count":720,
			"type":"VEC3"
		},
		{
			"bufferView":20,
			"componentType":5126,
			"count":720,
			"type":"VEC2"
		},
		{
			"bufferView":21,
			"componentType":5126,
			"count":720,
			"type":"VEC4"
		},
		{
			"bufferView":22,
			"componentType":5123,
			"count":1104,
			"type":"SCALAR"
		},
		{
			"bufferView":23,
			"componentType":5126,
			"count":100,
			"max":[
				1.1800000667572021,
				-0.6210775375366211,
				1.1763720512390137
			],
			"min":[
				-1.1800000667572021,
				-1.2752087116241455,
				-1.1836280822753906
			],
			"type":"VEC3"
		},
		{
			"bufferView":24,
			"componentType":5126,
			"count":100,
			"type":"VEC3"
		},
		{
			"bufferView":25,
			"componentType":5126,
			"count":100,
			"type":"VEC2"
		},
		{
			"bufferView":26,
			"componentType":5123,
			"count":552,
			"type":"SCALAR"
		},
		{
			"bufferView":27,
			"componentType":5126,
			"count":148,
			"max":[
				0.8698647022247314,
				-0.18598604202270508,
				0.8673402667045593
			],
			"min":[
				-0.8698647022247314,
				-0.7295136451721191,
				-0.8723893165588379
			],
			"type":"VEC3"
		},
		{
			"bufferView":28,
			"componentType":5126,
			"count":148,
			"type":"VEC3"
		},
		{
			"bufferView":29,
			"componentType":5126,
			"count":148,
			"type":"VEC2"
		},
		{
			"bufferView":30,
			"componentType":5123,
			"count":888,
			"type":"SCALAR"
		},
		{
			"bufferView":31,
			"componentType":5126,
			"count":128,
			"max":[
				0.8698647022247314,
				-0.9366154670715332,
				0.8673405647277832
			],
			"min":[
				-0.8698647022247314,
				-0.9824146032333374,
				-0.8723888993263245
			],
			"type":"VEC3"
		},
		{
			"bufferView":32,
			"componentType":5126,
			"count":128,
			"type":"VEC3"
		},
		{
			"bufferView":33,
			"componentType":5126,
			"count":128,
			"type":"VEC2"
		},
		{
			"bufferView":34,
			"componentType":5126,
			"count":128,
			"type":"VEC4"
		},
		{
			"bufferView":35,
			"componentType":5123,
			"count":768,
			"type":"SCALAR"
		},
		{
			"bufferView":36,
			"componentType":5126,
			"count":4944,
			"max":[
				0.7964494228363037,
				2.479180097579956,
				0.7987610101699829
			],
			"min":[
				-0.7964494228363037,
				0.0022161698434501886,
				-0.7941380143165588
			],
			"type":"VEC3"
		},
		{
			"bufferView":37,
			"componentType":5126,
			"count":4944,
			"type":"VEC3"
		},
		{
			"bufferView":38,
			"componentType":5126,
			"count":4944,
			"type":"VEC2"
		},
		{
			"bufferView":39,
			"componentType":5123,
			"count":8484,
			"type":"SCALAR"
		}
	],
	"bufferViews":[
		{
			"buffer":0,
			"byteLength":14868,
			"byteOffset":0,
			"target":34962
		},
		{
			"buffer":0,
			"byteLength":14868,
			"byteOffset":14868,
			"target":34962
		},
		{
			"buffer":0,
			"byteLength":9912,
			"byteOffset":29736,
			"target":34962
		},
		{
			"buffer":0,
			"byteLength":19824,
			"byteOffset":39648,
			"target":34962
		},
		{
			"buffer":0,
			"byteLength":3552,
			"byteOffset":59472,
			"target":34963
		},
		{
			"buffer":0,
			"byteLength":18576,
			"byteOffset":63024,
			"target":34962
		},
		{
			"buffer":0,
			"byteLength":18576,
			"byteOffset":81600,
			"target":34962
		},
		{
			"buffer":0,
			"byteLength":12384,
			"byteOffset":100176,
			"target":34962
		},
		{
			"buffer":0,
			"byteLength":24768,
			"byteOffset":112560,
			"target":34962
		},
		{
			"buffer":0,
			"byteLength":4512,
			"byteOffset":137328,
			"target":34963
		},
		{
			"buffer":0,
			"byteLength":3456,
			"byteOffset":141840,
			"target":34962
		},
		{
			"buffer":0,
			"byteLength":3456,
			"byteOffset":145296,
			"target":34962
		},
		{
			"buffer":0,
			"byteLength":2304,
			"byteOffset":148752,
			"target":34962
		},
		{
			"buffer":0,
			"byteLength":948,
			"byteOffset":151056,
			"target":34963
		},
		{
			"buffer":0,
			"byteLength":9600,
			"byteOffset":152004,
			"target":34962
		},
		{
			"buffer":0,
			"byteLength":9600,
			"byteOffset":161604,
			"target":34962
		},
		{
			"buffer":0,
			"byteLength":6400,
			"byteOffset":171204,
			"target":34962
		},
		{
			"buffer":0,
			"byteLength":2484,
			"byteOffset":177604,
			"target":34963
		},
		{
			"buffer":0,
			"byteLength":8640,
			"byteOffset":180088,
			"target":34962
		},
		{
			"buffer":0,
			"byteLength":8640,
			"byteOffset":188728,
			"target":34962
		},
		{
			"buffer":0,
			"byteLength":5760,
			"byteOffset":197368,
			"target":34962
		},
		{
			"buffer":0,
			"byteLength":11520,
			"byteOffset":203128,
			"target":34962
		},
		{
			"buffer":0,
			"byteLength":2208,
			"byteOffset":214648,
			"target":34963
		},
		{
			"buffer":0,
			"byteLength":1200,
			"byteOffset":216856,
			"target":34962
		},
		{
			"buffer":0,
			"byteLength":1200,
			"byteOffset":218056,
			"target":34962
		},
		{
			"buffer":0,
			"byteLength":800,
			"byteOffset":219256,
			"target":34962
		},
		{
			"buffer":0,
			"byteLength":1104,
			"byteOffset":220056,
			"target":34963
		},
		{
			"buffer":0,
			"byteLength":1776,
			"byteOffset":221160,
			"target":34962
		},
		{
			"buffer":0,
			"byteLength":1776,
			"byteOffset":222936,
			"target":34962
		},
		{
			"buffer":0,
			"byteLength":1184,
			"byteOffset":224712,
			"target":34962
		},
		{
			"buffer":0,
			"byteLength":1776,
			"byteOffset":225896,
			"target":34963
		},
		{
			"buffer":0,
			"byteLength":1536,
			"byteOffset":227672,
			"target":34962
		},
		{
			"buffer":0,
			"byteLength":1536,
			"byteOffset":229208,
			"target":34962
		},
		{
			"buffer":0,
			"byteLength":1024,
			"byteOffset":230744,
			"target":34962
		},
		{
			"buffer":0,
			"byteLength":2048,
			"byteOffset":231768,
			"target":34962
		},
		{
			"buffer":0,
			"byteLength":1536,
			"byteOffset":233816,
			"target":34963
		},
		{
			"buffer":0,
			"byteLength":59328,
			"byteOffset":235352,
			"target":34962
		},
		{
			"buffer":0,
			"byteLength":59328,
			"byteOffset":294680,
			"target":34962
		},
		{
			"buffer":0,
			"byteLength":39552,
			"byteOffset":354008,
			"target":34962
		},
		{
			"buffer":0,
			"byteLength":16968,
			"byteOffset":393560,
			"target":34963
		}
	],
	"buffers":[
		{
			"byteLength":410528,
			"uri":"Fuel%20Tank_Module-6fe519a74a318e6c7f3c4b54b8aaf2b8.bin"
		}
	]
}
