{
	"asset":{
		"generator":"Khronos glTF Blender I/O v4.3.47",
		"version":"2.0"
	},
	"scene":0,
	"scenes":[
		{
			"extras":{
				"td":{
					"density_set":"1.28",
					"uv_space":"349.4106 %",
					"density":"1.280"
				}
			},
			"name":"Scene",
			"nodes":[
				0,
				1,
				2,
				3,
				4,
				5,
				6,
				7
			]
		}
	],
	"nodes":[
		{
			"mesh":0,
			"name":"Cube"
		},
		{
			"mesh":1,
			"name":"Cube.001"
		},
		{
			"mesh":2,
			"name":"Sphere",
			"rotation":[
				0.3535533845424652,
				-0.3535533845424652,
				0.1464466154575348,
				0.8535534143447876
			],
			"translation":[
				0,
				3.3909096717834473,
				0
			]
		},
		{
			"mesh":3,
			"name":"Sphere.001",
			"rotation":[
				0.3535533845424652,
				-0.3535533845424652,
				0.1464466154575348,
				0.8535534143447876
			],
			"translation":[
				0,
				3.3909096717834473,
				0
			]
		},
		{
			"mesh":4,
			"name":"Cube.002",
			"translation":[
				-1.685703158378601,
				-0.16801023483276367,
				0
			]
		},
		{
			"mesh":5,
			"name":"Cube.003",
			"translation":[
				-1.685703158378601,
				0.28332647681236267,
				0
			]
		},
		{
			"mesh":6,
			"name":"Cube.004"
		},
		{
			"mesh":7,
			"name":"Cube.005",
			"translation":[
				-1.685703158378601,
				0.28332647681236267,
				0
			]
		}
	],
	"materials":[
		{
			"doubleSided":true,
			"name":"Material.001"
		}
	],
	"meshes":[
		{
			"name":"Cube.001",
			"primitives":[
				{
					"attributes":{
						"POSITION":0,
						"NORMAL":1,
						"TEXCOORD_0":2,
						"TANGENT":3
					},
					"indices":4,
					"material":0
				}
			]
		},
		{
			"name":"Cube.002",
			"primitives":[
				{
					"attributes":{
						"POSITION":5,
						"NORMAL":6,
						"TEXCOORD_0":7,
						"TANGENT":8
					},
					"indices":9,
					"material":0
				}
			]
		},
		{
			"name":"Sphere",
			"primitives":[
				{
					"attributes":{
						"POSITION":10,
						"NORMAL":11,
						"TEXCOORD_0":12
					},
					"indices":13,
					"material":0
				}
			]
		},
		{
			"name":"Sphere.001",
			"primitives":[
				{
					"attributes":{
						"POSITION":14,
						"NORMAL":15,
						"TEXCOORD_0":16,
						"TANGENT":17
					},
					"indices":18,
					"material":0
				}
			]
		},
		{
			"name":"Cube.003",
			"primitives":[
				{
					"attributes":{
						"POSITION":19,
						"NORMAL":20,
						"TEXCOORD_0":21,
						"TANGENT":22
					},
					"indices":23,
					"material":0
				}
			]
		},
		{
			"name":"Cube.004",
			"primitives":[
				{
					"attributes":{
						"POSITION":24,
						"NORMAL":25,
						"TEXCOORD_0":26,
						"TANGENT":27
					},
					"indices":28,
					"material":0
				}
			]
		},
		{
			"name":"Cube.006",
			"primitives":[
				{
					"attributes":{
						"POSITION":29,
						"NORMAL":30,
						"TEXCOORD_0":31,
						"TANGENT":32
					},
					"indices":33,
					"material":0
				}
			]
		},
		{
			"name":"Cube.008",
			"primitives":[
				{
					"attributes":{
						"POSITION":34,
						"NORMAL":35,
						"TEXCOORD_0":36,
						"TANGENT":37
					},
					"indices":38,
					"material":0
				}
			]
		}
	],
	"accessors":[
		{
			"bufferView":0,
			"componentType":5126,
			"count":20,
			"max":[
				1,
				1.7481797933578491,
				1.3085522651672363
			],
			"min":[
				-1,
				-0.6597747206687927,
				-1.3085522651672363
			],
			"type":"VEC3"
		},
		{
			"bufferView":1,
			"componentType":5126,
			"count":20,
			"type":"VEC3"
		},
		{
			"bufferView":2,
			"componentType":5126,
			"count":20,
			"type":"VEC2"
		},
		{
			"bufferView":3,
			"componentType":5126,
			"count":20,
			"type":"VEC4"
		},
		{
			"bufferView":4,
			"componentType":5123,
			"count":36,
			"type":"SCALAR"
		},
		{
			"bufferView":5,
			"componentType":5126,
			"count":64,
			"max":[
				1.3120977878570557,
				1.8681797981262207,
				1.6085522174835205
			],
			"min":[
				-1.3120977878570557,
				0.8202800154685974,
				-1.6085522174835205
			],
			"type":"VEC3"
		},
		{
			"bufferView":6,
			"componentType":5126,
			"count":64,
			"type":"VEC3"
		},
		{
			"bufferView":7,
			"componentType":5126,
			"count":64,
			"type":"VEC2"
		},
		{
			"bufferView":8,
			"componentType":5126,
			"count":64,
			"type":"VEC4"
		},
		{
			"bufferView":9,
			"componentType":5123,
			"count":144,
			"type":"SCALAR"
		},
		{
			"bufferView":10,
			"componentType":5126,
			"count":1632,
			"max":[
				1.0298552513122559,
				0.30377721786499023,
				1.0298548936843872
			],
			"min":[
				-1.0298545360565186,
				-0.9763083457946777,
				-1.029855489730835
			],
			"type":"VEC3"
		},
		{
			"bufferView":11,
			"componentType":5126,
			"count":1632,
			"type":"VEC3"
		},
		{
			"bufferView":12,
			"componentType":5126,
			"count":1632,
			"type":"VEC2"
		},
		{
			"bufferView":13,
			"componentType":5123,
			"count":4404,
			"type":"SCALAR"
		},
		{
			"bufferView":14,
			"componentType":5126,
			"count":1792,
			"max":[
				0.31544068455696106,
				-0.97537761926651,
				0.9967551231384277
			],
			"min":[
				-0.3154405951499939,
				-2.148177146911621,
				-0.31544047594070435
			],
			"type":"VEC3"
		},
		{
			"bufferView":15,
			"componentType":5126,
			"count":1792,
			"type":"VEC3"
		},
		{
			"bufferView":16,
			"componentType":5126,
			"count":1792,
			"type":"VEC2"
		},
		{
			"bufferView":17,
			"componentType":5126,
			"count":1792,
			"type":"VEC4"
		},
		{
			"bufferView":18,
			"componentType":5123,
			"count":2688,
			"type":"SCALAR"
		},
		{
			"bufferView":19,
			"componentType":5126,
			"count":12,
			"max":[
				0.8319897651672363,
				0.8319897651672363,
				0.8319897651672363
			],
			"min":[
				-0.8319897651672363,
				-0.49176454544067383,
				-0.8319897651672363
			],
			"type":"VEC3"
		},
		{
			"bufferView":20,
			"componentType":5126,
			"count":12,
			"type":"VEC3"
		},
		{
			"bufferView":21,
			"componentType":5126,
			"count":12,
			"type":"VEC2"
		},
		{
			"bufferView":22,
			"componentType":5126,
			"count":12,
			"type":"VEC4"
		},
		{
			"bufferView":23,
			"componentType":5123,
			"count":18,
			"type":"SCALAR"
		},
		{
			"bufferView":24,
			"componentType":5126,
			"count":32,
			"max":[
				0.8319897651672363,
				0.4638752043247223,
				0.9550040364265442
			],
			"min":[
				-1.0004769563674927,
				-0.4403190612792969,
				-0.9550040364265442
			],
			"type":"VEC3"
		},
		{
			"bufferView":25,
			"componentType":5126,
			"count":32,
			"type":"VEC3"
		},
		{
			"bufferView":26,
			"componentType":5126,
			"count":32,
			"type":"VEC2"
		},
		{
			"bufferView":27,
			"componentType":5126,
			"count":32,
			"type":"VEC4"
		},
		{
			"bufferView":28,
			"componentType":5123,
			"count":72,
			"type":"SCALAR"
		},
		{
			"bufferView":29,
			"componentType":5126,
			"count":36,
			"max":[
				1.3120977878570557,
				1.8681797981262207,
				1.6085522174835205
			],
			"min":[
				-1.3120977878570557,
				0.9163638949394226,
				-1.6085522174835205
			],
			"type":"VEC3"
		},
		{
			"bufferView":30,
			"componentType":5126,
			"count":36,
			"type":"VEC3"
		},
		{
			"bufferView":31,
			"componentType":5126,
			"count":36,
			"type":"VEC2"
		},
		{
			"bufferView":32,
			"componentType":5126,
			"count":36,
			"type":"VEC4"
		},
		{
			"bufferView":33,
			"componentType":5123,
			"count":72,
			"type":"SCALAR"
		},
		{
			"bufferView":34,
			"componentType":5126,
			"count":8,
			"max":[
				0.7939138412475586,
				0.4638752043247223,
				0.9550040364265442
			],
			"min":[
				-1.0004769563674927,
				-0.3570968806743622,
				-0.9550040364265442
			],
			"type":"VEC3"
		},
		{
			"bufferView":35,
			"componentType":5126,
			"count":8,
			"type":"VEC3"
		},
		{
			"bufferView":36,
			"componentType":5126,
			"count":8,
			"type":"VEC2"
		},
		{
			"bufferView":37,
			"componentType":5126,
			"count":8,
			"type":"VEC4"
		},
		{
			"bufferView":38,
			"componentType":5123,
			"count":12,
			"type":"SCALAR"
		}
	],
	"bufferViews":[
		{
			"buffer":0,
			"byteLength":240,
			"byteOffset":0,
			"target":34962
		},
		{
			"buffer":0,
			"byteLength":240,
			"byteOffset":240,
			"target":34962
		},
		{
			"buffer":0,
			"byteLength":160,
			"byteOffset":480,
			"target":34962
		},
		{
			"buffer":0,
			"byteLength":320,
			"byteOffset":640,
			"target":34962
		},
		{
			"buffer":0,
			"byteLength":72,
			"byteOffset":960,
			"target":34963
		},
		{
			"buffer":0,
			"byteLength":768,
			"byteOffset":1032,
			"target":34962
		},
		{
			"buffer":0,
			"byteLength":768,
			"byteOffset":1800,
			"target":34962
		},
		{
			"buffer":0,
			"byteLength":512,
			"byteOffset":2568,
			"target":34962
		},
		{
			"buffer":0,
			"byteLength":1024,
			"byteOffset":3080,
			"target":34962
		},
		{
			"buffer":0,
			"byteLength":288,
			"byteOffset":4104,
			"target":34963
		},
		{
			"buffer":0,
			"byteLength":19584,
			"byteOffset":4392,
			"target":34962
		},
		{
			"buffer":0,
			"byteLength":19584,
			"byteOffset":23976,
			"target":34962
		},
		{
			"buffer":0,
			"byteLength":13056,
			"byteOffset":43560,
			"target":34962
		},
		{
			"buffer":0,
			"byteLength":8808,
			"byteOffset":56616,
			"target":34963
		},
		{
			"buffer":0,
			"byteLength":21504,
			"byteOffset":65424,
			"target":34962
		},
		{
			"buffer":0,
			"byteLength":21504,
			"byteOffset":86928,
			"target":34962
		},
		{
			"buffer":0,
			"byteLength":14336,
			"byteOffset":108432,
			"target":34962
		},
		{
			"buffer":0,
			"byteLength":28672,
			"byteOffset":122768,
			"target":34962
		},
		{
			"buffer":0,
			"byteLength":5376,
			"byteOffset":151440,
			"target":34963
		},
		{
			"buffer":0,
			"byteLength":144,
			"byteOffset":156816,
			"target":34962
		},
		{
			"buffer":0,
			"byteLength":144,
			"byteOffset":156960,
			"target":34962
		},
		{
			"buffer":0,
			"byteLength":96,
			"byteOffset":157104,
			"target":34962
		},
		{
			"buffer":0,
			"byteLength":192,
			"byteOffset":157200,
			"target":34962
		},
		{
			"buffer":0,
			"byteLength":36,
			"byteOffset":157392,
			"target":34963
		},
		{
			"buffer":0,
			"byteLength":384,
			"byteOffset":157428,
			"target":34962
		},
		{
			"buffer":0,
			"byteLength":384,
			"byteOffset":157812,
			"target":34962
		},
		{
			"buffer":0,
			"byteLength":256,
			"byteOffset":158196,
			"target":34962
		},
		{
			"buffer":0,
			"byteLength":512,
			"byteOffset":158452,
			"target":34962
		},
		{
			"buffer":0,
			"byteLength":144,
			"byteOffset":158964,
			"target":34963
		},
		{
			"buffer":0,
			"byteLength":432,
			"byteOffset":159108,
			"target":34962
		},
		{
			"buffer":0,
			"byteLength":432,
			"byteOffset":159540,
			"target":34962
		},
		{
			"buffer":0,
			"byteLength":288,
			"byteOffset":159972,
			"target":34962
		},
		{
			"buffer":0,
			"byteLength":576,
			"byteOffset":160260,
			"target":34962
		},
		{
			"buffer":0,
			"byteLength":144,
			"byteOffset":160836,
			"target":34963
		},
		{
			"buffer":0,
			"byteLength":96,
			"byteOffset":160980,
			"target":34962
		},
		{
			"buffer":0,
			"byteLength":96,
			"byteOffset":161076,
			"target":34962
		},
		{
			"buffer":0,
			"byteLength":64,
			"byteOffset":161172,
			"target":34962
		},
		{
			"buffer":0,
			"byteLength":128,
			"byteOffset":161236,
			"target":34962
		},
		{
			"buffer":0,
			"byteLength":24,
			"byteOffset":161364,
			"target":34963
		}
	],
	"buffers":[
		{
			"byteLength":161388,
			"uri":"S_House-cb4e21233e7a8c8947baf2b5ce852ce3.bin"
		}
	]
}
