{
	"asset":{
		"generator":"Khronos glTF Blender I/O v4.3.47",
		"version":"2.0"
	},
	"scene":0,
	"scenes":[
		{
			"extras":{
				"td":{
					"density_set":"0.64",
					"uv_space":"1.6744 %",
					"density":"0.640"
				}
			},
			"name":"Scene",
			"nodes":[
				0,
				1,
				2,
				3,
				4,
				5,
				6,
				7,
				8,
				9,
				10,
				11,
				12,
				13,
				14
			]
		}
	],
	"nodes":[
		{
			"mesh":0,
			"name":"Circle",
			"scale":[
				0.7507613301277161,
				1,
				0.7507613301277161
			],
			"translation":[
				0,
				-1.4594039916992188,
				0
			]
		},
		{
			"mesh":1,
			"name":"Circle.001",
			"scale":[
				0.7507613301277161,
				1,
				0.7507613301277161
			],
			"translation":[
				0,
				-1.653090000152588,
				0
			]
		},
		{
			"mesh":2,
			"name":"Circle.002",
			"rotation":[
				0,
				0.7071068286895752,
				0,
				0.7071067690849304
			],
			"scale":[
				0.7507613301277161,
				1,
				0.7507613301277161
			],
			"translation":[
				0,
				-1.653090000152588,
				0
			]
		},
		{
			"mesh":3,
			"name":"Circle.003",
			"rotation":[
				0,
				-1,
				0,
				1.6292067073209182e-07
			],
			"scale":[
				0.7507613301277161,
				1,
				0.7507613301277161
			],
			"translation":[
				0,
				-1.653090000152588,
				0
			]
		},
		{
			"mesh":4,
			"name":"Circle.004",
			"rotation":[
				0,
				-0.7071065902709961,
				0,
				0.7071070075035095
			],
			"scale":[
				0.7507613301277161,
				1,
				0.7507613301277161
			],
			"translation":[
				0,
				-1.653090000152588,
				0
			]
		},
		{
			"mesh":5,
			"name":"Circle.025",
			"rotation":[
				0,
				-0.7071065902709961,
				0,
				0.7071069478988647
			]
		},
		{
			"mesh":6,
			"name":"Circle.026",
			"rotation":[
				-1,
				0,
				0,
				1.6292068494294654e-07
			]
		},
		{
			"mesh":7,
			"name":"Circle.027",
			"rotation":[
				-0.7071068286895752,
				0,
				-0.7071067094802856,
				1.306566304037915e-07
			]
		},
		{
			"mesh":8,
			"name":"Circle.028",
			"rotation":[
				-1,
				0,
				0,
				1.6292068494294654e-07
			]
		},
		{
			"mesh":9,
			"name":"Circle.029",
			"rotation":[
				-1,
				0,
				0,
				1.6292068494294654e-07
			]
		},
		{
			"mesh":10,
			"name":"Circle.035",
			"translation":[
				0,
				-1.4594039916992188,
				0
			]
		},
		{
			"mesh":11,
			"name":"Circle.036",
			"rotation":[
				-1,
				0,
				0,
				1.6292068494294654e-07
			]
		},
		{
			"mesh":12,
			"name":"Circle.037",
			"rotation":[
				-1,
				0,
				0,
				1.6292069915380125e-07
			],
			"scale":[
				0.9216610193252563,
				0.9216610193252563,
				0.9216610193252563
			],
			"translation":[
				0,
				-2.494955539703369,
				0
			]
		},
		{
			"mesh":13,
			"name":"Circle.038",
			"rotation":[
				-1,
				0,
				0,
				1.6292068494294654e-07
			],
			"translation":[
				0,
				-2.217939615249634,
				0
			]
		},
		{
			"mesh":14,
			"name":"Circle.014",
			"rotation":[
				-1,
				0,
				0,
				1.6292068494294654e-07
			]
		}
	],
	"materials":[
		{
			"doubleSided":true,
			"name":"Thruster_Module"
		}
	],
	"meshes":[
		{
			"name":"Circle.128",
			"primitives":[
				{
					"attributes":{
						"POSITION":0,
						"NORMAL":1,
						"TEXCOORD_0":2,
						"TANGENT":3
					},
					"indices":4
				}
			]
		},
		{
			"name":"Circle.002",
			"primitives":[
				{
					"attributes":{
						"POSITION":5,
						"NORMAL":6,
						"TEXCOORD_0":7
					},
					"indices":8
				}
			]
		},
		{
			"name":"Circle.003",
			"primitives":[
				{
					"attributes":{
						"POSITION":9,
						"NORMAL":10,
						"TEXCOORD_0":11
					},
					"indices":8
				}
			]
		},
		{
			"name":"Circle.004",
			"primitives":[
				{
					"attributes":{
						"POSITION":12,
						"NORMAL":13,
						"TEXCOORD_0":14
					},
					"indices":8
				}
			]
		},
		{
			"name":"Circle.005",
			"primitives":[
				{
					"attributes":{
						"POSITION":15,
						"NORMAL":16,
						"TEXCOORD_0":17
					},
					"indices":8
				}
			]
		},
		{
			"name":"Circle.123",
			"primitives":[
				{
					"attributes":{
						"POSITION":18,
						"NORMAL":19,
						"TEXCOORD_0":20,
						"TANGENT":21
					},
					"indices":22,
					"material":0
				}
			]
		},
		{
			"name":"Circle.124",
			"primitives":[
				{
					"attributes":{
						"POSITION":23,
						"NORMAL":24,
						"TEXCOORD_0":25,
						"TANGENT":26
					},
					"indices":27,
					"material":0
				}
			]
		},
		{
			"name":"Circle.125",
			"primitives":[
				{
					"attributes":{
						"POSITION":28,
						"NORMAL":29,
						"TEXCOORD_0":30,
						"TANGENT":31
					},
					"indices":32,
					"material":0
				}
			]
		},
		{
			"name":"Circle.126",
			"primitives":[
				{
					"attributes":{
						"POSITION":33,
						"NORMAL":34,
						"TEXCOORD_0":35
					},
					"indices":36,
					"material":0
				}
			]
		},
		{
			"name":"Circle.127",
			"primitives":[
				{
					"attributes":{
						"POSITION":37,
						"NORMAL":38,
						"TEXCOORD_0":39
					},
					"indices":40,
					"material":0
				}
			]
		},
		{
			"name":"Circle.130",
			"primitives":[
				{
					"attributes":{
						"POSITION":41,
						"NORMAL":42,
						"TEXCOORD_0":43
					},
					"indices":44
				}
			]
		},
		{
			"name":"Circle.131",
			"primitives":[
				{
					"attributes":{
						"POSITION":45,
						"NORMAL":46,
						"TEXCOORD_0":47,
						"TANGENT":48
					},
					"indices":49,
					"material":0
				}
			]
		},
		{
			"name":"Circle.132",
			"primitives":[
				{
					"attributes":{
						"POSITION":50,
						"NORMAL":51,
						"TEXCOORD_0":52,
						"TANGENT":53
					},
					"indices":54,
					"material":0
				}
			]
		},
		{
			"name":"Circle.133",
			"primitives":[
				{
					"attributes":{
						"POSITION":55,
						"NORMAL":56,
						"TEXCOORD_0":57,
						"TANGENT":58
					},
					"indices":59,
					"material":0
				}
			]
		},
		{
			"name":"Circle.016",
			"primitives":[
				{
					"attributes":{
						"POSITION":60,
						"NORMAL":61,
						"TEXCOORD_0":62
					},
					"indices":63,
					"material":0
				}
			]
		}
	],
	"accessors":[
		{
			"bufferView":0,
			"componentType":5126,
			"count":418,
			"max":[
				1.0354927778244019,
				0.1485813856124878,
				1.0354927778244019
			],
			"min":[
				-1.0354927778244019,
				-0.5055496692657471,
				-1.0354927778244019
			],
			"type":"VEC3"
		},
		{
			"bufferView":1,
			"componentType":5126,
			"count":418,
			"type":"VEC3"
		},
		{
			"bufferView":2,
			"componentType":5126,
			"count":418,
			"type":"VEC2"
		},
		{
			"bufferView":3,
			"componentType":5126,
			"count":418,
			"type":"VEC4"
		},
		{
			"bufferView":4,
			"componentType":5123,
			"count":1104,
			"type":"SCALAR"
		},
		{
			"bufferView":5,
			"componentType":5126,
			"count":50,
			"max":[
				-0.9238795042037964,
				0.1485813856124878,
				0.43493467569351196
			],
			"min":[
				-1.1800000667572021,
				-0.5055496692657471,
				-0.43493467569351196
			],
			"type":"VEC3"
		},
		{
			"bufferView":6,
			"componentType":5126,
			"count":50,
			"type":"VEC3"
		},
		{
			"bufferView":7,
			"componentType":5126,
			"count":50,
			"type":"VEC2"
		},
		{
			"bufferView":8,
			"componentType":5123,
			"count":114,
			"type":"SCALAR"
		},
		{
			"bufferView":9,
			"componentType":5126,
			"count":50,
			"max":[
				-0.9238795042037964,
				0.1485813856124878,
				0.43493467569351196
			],
			"min":[
				-1.1800000667572021,
				-0.5055496692657471,
				-0.43493467569351196
			],
			"type":"VEC3"
		},
		{
			"bufferView":10,
			"componentType":5126,
			"count":50,
			"type":"VEC3"
		},
		{
			"bufferView":11,
			"componentType":5126,
			"count":50,
			"type":"VEC2"
		},
		{
			"bufferView":12,
			"componentType":5126,
			"count":50,
			"max":[
				-0.9238795042037964,
				0.1485813856124878,
				0.43493467569351196
			],
			"min":[
				-1.1800000667572021,
				-0.5055496692657471,
				-0.43493467569351196
			],
			"type":"VEC3"
		},
		{
			"bufferView":13,
			"componentType":5126,
			"count":50,
			"type":"VEC3"
		},
		{
			"bufferView":14,
			"componentType":5126,
			"count":50,
			"type":"VEC2"
		},
		{
			"bufferView":15,
			"componentType":5126,
			"count":50,
			"max":[
				-0.9238795042037964,
				0.1485813856124878,
				0.43493467569351196
			],
			"min":[
				-1.1800000667572021,
				-0.5055496692657471,
				-0.43493467569351196
			],
			"type":"VEC3"
		},
		{
			"bufferView":16,
			"componentType":5126,
			"count":50,
			"type":"VEC3"
		},
		{
			"bufferView":17,
			"componentType":5126,
			"count":50,
			"type":"VEC2"
		},
		{
			"bufferView":18,
			"componentType":5126,
			"count":1241,
			"max":[
				0.6702491641044617,
				-1.255232334136963,
				0.6702494621276855
			],
			"min":[
				-0.670248806476593,
				-1.4799996614456177,
				-0.6702485680580139
			],
			"type":"VEC3"
		},
		{
			"bufferView":19,
			"componentType":5126,
			"count":1241,
			"type":"VEC3"
		},
		{
			"bufferView":20,
			"componentType":5126,
			"count":1241,
			"type":"VEC2"
		},
		{
			"bufferView":21,
			"componentType":5126,
			"count":1241,
			"type":"VEC4"
		},
		{
			"bufferView":22,
			"componentType":5123,
			"count":1776,
			"type":"SCALAR"
		},
		{
			"bufferView":23,
			"componentType":5126,
			"count":852,
			"max":[
				0.7292572259902954,
				1.4800000190734863,
				0.7292570471763611
			],
			"min":[
				-0.7292572259902954,
				1.4594039916992188,
				-0.7292574048042297
			],
			"type":"VEC3"
		},
		{
			"bufferView":24,
			"componentType":5126,
			"count":852,
			"type":"VEC3"
		},
		{
			"bufferView":25,
			"componentType":5126,
			"count":852,
			"type":"VEC2"
		},
		{
			"bufferView":26,
			"componentType":5126,
			"count":852,
			"type":"VEC4"
		},
		{
			"bufferView":27,
			"componentType":5123,
			"count":1344,
			"type":"SCALAR"
		},
		{
			"bufferView":28,
			"componentType":5126,
			"count":1526,
			"max":[
				0.744107186794281,
				1.4800000190734863,
				0.7441072463989258
			],
			"min":[
				-0.7441069483757019,
				1.2399998903274536,
				-0.7441068887710571
			],
			"type":"VEC3"
		},
		{
			"bufferView":29,
			"componentType":5126,
			"count":1526,
			"type":"VEC3"
		},
		{
			"bufferView":30,
			"componentType":5126,
			"count":1526,
			"type":"VEC2"
		},
		{
			"bufferView":31,
			"componentType":5126,
			"count":1526,
			"type":"VEC4"
		},
		{
			"bufferView":32,
			"componentType":5123,
			"count":2256,
			"type":"SCALAR"
		},
		{
			"bufferView":33,
			"componentType":5126,
			"count":195,
			"max":[
				0.7042572498321533,
				1.4799998998641968,
				0.7042571902275085
			],
			"min":[
				-0.7042572498321533,
				1.279999852180481,
				-0.7042574286460876
			],
			"type":"VEC3"
		},
		{
			"bufferView":34,
			"componentType":5126,
			"count":195,
			"type":"VEC3"
		},
		{
			"bufferView":35,
			"componentType":5126,
			"count":195,
			"type":"VEC2"
		},
		{
			"bufferView":36,
			"componentType":5123,
			"count":474,
			"type":"SCALAR"
		},
		{
			"bufferView":37,
			"componentType":5126,
			"count":597,
			"max":[
				1.0330874919891357,
				3.0085058212280273,
				1.0330873727798462
			],
			"min":[
				-1.0330874919891357,
				1.4799997806549072,
				-1.0330876111984253
			],
			"type":"VEC3"
		},
		{
			"bufferView":38,
			"componentType":5126,
			"count":597,
			"type":"VEC3"
		},
		{
			"bufferView":39,
			"componentType":5126,
			"count":597,
			"type":"VEC2"
		},
		{
			"bufferView":40,
			"componentType":5123,
			"count":1908,
			"type":"SCALAR"
		},
		{
			"bufferView":41,
			"componentType":5126,
			"count":304,
			"max":[
				0.8698647022247314,
				0,
				0.8698647022247314
			],
			"min":[
				-0.8698647022247314,
				-0.22768405079841614,
				-0.8698647022247314
			],
			"type":"VEC3"
		},
		{
			"bufferView":42,
			"componentType":5126,
			"count":304,
			"type":"VEC3"
		},
		{
			"bufferView":43,
			"componentType":5126,
			"count":304,
			"type":"VEC2"
		},
		{
			"bufferView":44,
			"componentType":5123,
			"count":888,
			"type":"SCALAR"
		},
		{
			"bufferView":45,
			"componentType":5126,
			"count":439,
			"max":[
				1.0134068727493286,
				2.829091787338257,
				1.0134068727493286
			],
			"min":[
				-1.013406753540039,
				2.734442949295044,
				-1.013406753540039
			],
			"type":"VEC3"
		},
		{
			"bufferView":46,
			"componentType":5126,
			"count":439,
			"type":"VEC3"
		},
		{
			"bufferView":47,
			"componentType":5126,
			"count":439,
			"type":"VEC2"
		},
		{
			"bufferView":48,
			"componentType":5126,
			"count":439,
			"type":"VEC4"
		},
		{
			"bufferView":49,
			"componentType":5123,
			"count":1536,
			"type":"SCALAR"
		},
		{
			"bufferView":50,
			"componentType":5126,
			"count":423,
			"max":[
				1.0134068727493286,
				0.05712030082941055,
				1.0134069919586182
			],
			"min":[
				-1.013406753540039,
				-0.03752854838967323,
				-1.0134066343307495
			],
			"type":"VEC3"
		},
		{
			"bufferView":51,
			"componentType":5126,
			"count":423,
			"type":"VEC3"
		},
		{
			"bufferView":52,
			"componentType":5126,
			"count":423,
			"type":"VEC2"
		},
		{
			"bufferView":53,
			"componentType":5126,
			"count":423,
			"type":"VEC4"
		},
		{
			"bufferView":54,
			"componentType":5123,
			"count":1536,
			"type":"SCALAR"
		},
		{
			"bufferView":55,
			"componentType":5126,
			"count":475,
			"max":[
				0.8512445688247681,
				0.050360970199108124,
				0.8512446880340576
			],
			"min":[
				-0.8512445092201233,
				-0.03076949343085289,
				-0.8512443900108337
			],
			"type":"VEC3"
		},
		{
			"bufferView":56,
			"componentType":5126,
			"count":475,
			"type":"VEC3"
		},
		{
			"bufferView":57,
			"componentType":5126,
			"count":475,
			"type":"VEC2"
		},
		{
			"bufferView":58,
			"componentType":5126,
			"count":475,
			"type":"VEC4"
		},
		{
			"bufferView":59,
			"componentType":5123,
			"count":1536,
			"type":"SCALAR"
		},
		{
			"bufferView":60,
			"componentType":5126,
			"count":5949,
			"max":[
				1.053246021270752,
				2.0245821475982666,
				1.0532461404800415
			],
			"min":[
				-1.053246021270752,
				-0.16356557607650757,
				-1.0532457828521729
			],
			"type":"VEC3"
		},
		{
			"bufferView":61,
			"componentType":5126,
			"count":5949,
			"type":"VEC3"
		},
		{
			"bufferView":62,
			"componentType":5126,
			"count":5949,
			"type":"VEC2"
		},
		{
			"bufferView":63,
			"componentType":5123,
			"count":11946,
			"type":"SCALAR"
		}
	],
	"bufferViews":[
		{
			"buffer":0,
			"byteLength":5016,
			"byteOffset":0,
			"target":34962
		},
		{
			"buffer":0,
			"byteLength":5016,
			"byteOffset":5016,
			"target":34962
		},
		{
			"buffer":0,
			"byteLength":3344,
			"byteOffset":10032,
			"target":34962
		},
		{
			"buffer":0,
			"byteLength":6688,
			"byteOffset":13376,
			"target":34962
		},
		{
			"buffer":0,
			"byteLength":2208,
			"byteOffset":20064,
			"target":34963
		},
		{
			"buffer":0,
			"byteLength":600,
			"byteOffset":22272,
			"target":34962
		},
		{
			"buffer":0,
			"byteLength":600,
			"byteOffset":22872,
			"target":34962
		},
		{
			"buffer":0,
			"byteLength":400,
			"byteOffset":23472,
			"target":34962
		},
		{
			"buffer":0,
			"byteLength":228,
			"byteOffset":23872,
			"target":34963
		},
		{
			"buffer":0,
			"byteLength":600,
			"byteOffset":24100,
			"target":34962
		},
		{
			"buffer":0,
			"byteLength":600,
			"byteOffset":24700,
			"target":34962
		},
		{
			"buffer":0,
			"byteLength":400,
			"byteOffset":25300,
			"target":34962
		},
		{
			"buffer":0,
			"byteLength":600,
			"byteOffset":25700,
			"target":34962
		},
		{
			"buffer":0,
			"byteLength":600,
			"byteOffset":26300,
			"target":34962
		},
		{
			"buffer":0,
			"byteLength":400,
			"byteOffset":26900,
			"target":34962
		},
		{
			"buffer":0,
			"byteLength":600,
			"byteOffset":27300,
			"target":34962
		},
		{
			"buffer":0,
			"byteLength":600,
			"byteOffset":27900,
			"target":34962
		},
		{
			"buffer":0,
			"byteLength":400,
			"byteOffset":28500,
			"target":34962
		},
		{
			"buffer":0,
			"byteLength":14892,
			"byteOffset":28900,
			"target":34962
		},
		{
			"buffer":0,
			"byteLength":14892,
			"byteOffset":43792,
			"target":34962
		},
		{
			"buffer":0,
			"byteLength":9928,
			"byteOffset":58684,
			"target":34962
		},
		{
			"buffer":0,
			"byteLength":19856,
			"byteOffset":68612,
			"target":34962
		},
		{
			"buffer":0,
			"byteLength":3552,
			"byteOffset":88468,
			"target":34963
		},
		{
			"buffer":0,
			"byteLength":10224,
			"byteOffset":92020,
			"target":34962
		},
		{
			"buffer":0,
			"byteLength":10224,
			"byteOffset":102244,
			"target":34962
		},
		{
			"buffer":0,
			"byteLength":6816,
			"byteOffset":112468,
			"target":34962
		},
		{
			"buffer":0,
			"byteLength":13632,
			"byteOffset":119284,
			"target":34962
		},
		{
			"buffer":0,
			"byteLength":2688,
			"byteOffset":132916,
			"target":34963
		},
		{
			"buffer":0,
			"byteLength":18312,
			"byteOffset":135604,
			"target":34962
		},
		{
			"buffer":0,
			"byteLength":18312,
			"byteOffset":153916,
			"target":34962
		},
		{
			"buffer":0,
			"byteLength":12208,
			"byteOffset":172228,
			"target":34962
		},
		{
			"buffer":0,
			"byteLength":24416,
			"byteOffset":184436,
			"target":34962
		},
		{
			"buffer":0,
			"byteLength":4512,
			"byteOffset":208852,
			"target":34963
		},
		{
			"buffer":0,
			"byteLength":2340,
			"byteOffset":213364,
			"target":34962
		},
		{
			"buffer":0,
			"byteLength":2340,
			"byteOffset":215704,
			"target":34962
		},
		{
			"buffer":0,
			"byteLength":1560,
			"byteOffset":218044,
			"target":34962
		},
		{
			"buffer":0,
			"byteLength":948,
			"byteOffset":219604,
			"target":34963
		},
		{
			"buffer":0,
			"byteLength":7164,
			"byteOffset":220552,
			"target":34962
		},
		{
			"buffer":0,
			"byteLength":7164,
			"byteOffset":227716,
			"target":34962
		},
		{
			"buffer":0,
			"byteLength":4776,
			"byteOffset":234880,
			"target":34962
		},
		{
			"buffer":0,
			"byteLength":3816,
			"byteOffset":239656,
			"target":34963
		},
		{
			"buffer":0,
			"byteLength":3648,
			"byteOffset":243472,
			"target":34962
		},
		{
			"buffer":0,
			"byteLength":3648,
			"byteOffset":247120,
			"target":34962
		},
		{
			"buffer":0,
			"byteLength":2432,
			"byteOffset":250768,
			"target":34962
		},
		{
			"buffer":0,
			"byteLength":1776,
			"byteOffset":253200,
			"target":34963
		},
		{
			"buffer":0,
			"byteLength":5268,
			"byteOffset":254976,
			"target":34962
		},
		{
			"buffer":0,
			"byteLength":5268,
			"byteOffset":260244,
			"target":34962
		},
		{
			"buffer":0,
			"byteLength":3512,
			"byteOffset":265512,
			"target":34962
		},
		{
			"buffer":0,
			"byteLength":7024,
			"byteOffset":269024,
			"target":34962
		},
		{
			"buffer":0,
			"byteLength":3072,
			"byteOffset":276048,
			"target":34963
		},
		{
			"buffer":0,
			"byteLength":5076,
			"byteOffset":279120,
			"target":34962
		},
		{
			"buffer":0,
			"byteLength":5076,
			"byteOffset":284196,
			"target":34962
		},
		{
			"buffer":0,
			"byteLength":3384,
			"byteOffset":289272,
			"target":34962
		},
		{
			"buffer":0,
			"byteLength":6768,
			"byteOffset":292656,
			"target":34962
		},
		{
			"buffer":0,
			"byteLength":3072,
			"byteOffset":299424,
			"target":34963
		},
		{
			"buffer":0,
			"byteLength":5700,
			"byteOffset":302496,
			"target":34962
		},
		{
			"buffer":0,
			"byteLength":5700,
			"byteOffset":308196,
			"target":34962
		},
		{
			"buffer":0,
			"byteLength":3800,
			"byteOffset":313896,
			"target":34962
		},
		{
			"buffer":0,
			"byteLength":7600,
			"byteOffset":317696,
			"target":34962
		},
		{
			"buffer":0,
			"byteLength":3072,
			"byteOffset":325296,
			"target":34963
		},
		{
			"buffer":0,
			"byteLength":71388,
			"byteOffset":328368,
			"target":34962
		},
		{
			"buffer":0,
			"byteLength":71388,
			"byteOffset":399756,
			"target":34962
		},
		{
			"buffer":0,
			"byteLength":47592,
			"byteOffset":471144,
			"target":34962
		},
		{
			"buffer":0,
			"byteLength":23892,
			"byteOffset":518736,
			"target":34963
		}
	],
	"buffers":[
		{
			"byteLength":542628,
			"uri":"thruster_Module-23cf4817ad121c22a3a4d70b1c419e4a.bin"
		}
	]
}
