{
	"asset":{
		"generator":"Khronos glTF Blender I/O v4.0.44",
		"version":"2.0"
	},
	"scene":0,
	"scenes":[
		{
			"extras":{
				"td":{
					"density_set":"0.64",
					"uv_space":"1.6744 %",
					"density":"0.640"
				}
			},
			"name":"Scene",
			"nodes":[
				0,
				1,
				2,
				3,
				4,
				5,
				6,
				7,
				8,
				9,
				10,
				11,
				12,
				13,
				14
			]
		}
	],
	"nodes":[
		{
			"mesh":0,
			"name":"Circle",
			"scale":[
				0.7507613301277161,
				1,
				0.7507613301277161
			],
			"translation":[
				0,
				-1.4594039916992188,
				0
			]
		},
		{
			"mesh":1,
			"name":"Circle.001",
			"scale":[
				0.7507613301277161,
				1,
				0.7507613301277161
			],
			"translation":[
				0,
				-1.653090000152588,
				0
			]
		},
		{
			"mesh":2,
			"name":"Circle.002",
			"rotation":[
				0,
				0.7071068286895752,
				0,
				0.7071067690849304
			],
			"scale":[
				0.7507613301277161,
				1,
				0.7507613301277161
			],
			"translation":[
				0,
				-1.653090000152588,
				0
			]
		},
		{
			"mesh":3,
			"name":"Circle.003",
			"rotation":[
				0,
				-1,
				0,
				1.6292067073209182e-07
			],
			"scale":[
				0.7507613301277161,
				1,
				0.7507613301277161
			],
			"translation":[
				0,
				-1.653090000152588,
				0
			]
		},
		{
			"mesh":4,
			"name":"Circle.004",
			"rotation":[
				0,
				-0.7071065902709961,
				0,
				0.7071070075035095
			],
			"scale":[
				0.7507613301277161,
				1,
				0.7507613301277161
			],
			"translation":[
				0,
				-1.653090000152588,
				0
			]
		},
		{
			"mesh":5,
			"name":"Circle.025",
			"rotation":[
				0,
				-0.7071065902709961,
				0,
				0.7071069478988647
			]
		},
		{
			"mesh":6,
			"name":"Circle.026",
			"rotation":[
				-1,
				0,
				0,
				1.6292068494294654e-07
			]
		},
		{
			"mesh":7,
			"name":"Circle.027",
			"rotation":[
				-0.7071068286895752,
				0,
				-0.7071067094802856,
				1.306566304037915e-07
			]
		},
		{
			"mesh":8,
			"name":"Circle.028",
			"rotation":[
				-1,
				0,
				0,
				1.6292068494294654e-07
			]
		},
		{
			"mesh":9,
			"name":"Circle.029",
			"rotation":[
				-1,
				0,
				0,
				1.6292068494294654e-07
			]
		},
		{
			"mesh":10,
			"name":"Circle.035",
			"translation":[
				0,
				-1.4594039916992188,
				0
			]
		},
		{
			"mesh":11,
			"name":"Circle.036",
			"rotation":[
				-1,
				0,
				0,
				1.6292068494294654e-07
			]
		},
		{
			"mesh":12,
			"name":"Circle.037",
			"rotation":[
				-1,
				0,
				0,
				1.6292069915380125e-07
			],
			"scale":[
				0.9216610193252563,
				0.9216610193252563,
				0.9216610193252563
			],
			"translation":[
				0,
				-2.494955539703369,
				0
			]
		},
		{
			"mesh":13,
			"name":"Circle.038",
			"rotation":[
				-1,
				0,
				0,
				1.6292068494294654e-07
			],
			"translation":[
				0,
				-2.217939615249634,
				0
			]
		},
		{
			"mesh":14,
			"name":"Circle.014",
			"rotation":[
				-1,
				0,
				0,
				1.6292068494294654e-07
			]
		}
	],
	"materials":[
		{
			"alphaMode":"BLEND",
			"doubleSided":true,
			"name":"Thruster_Module",
			"pbrMetallicRoughness":{}
		},
		{
			"alphaMode":"BLEND",
			"doubleSided":true,
			"name":"Thruster_Module",
			"pbrMetallicRoughness":{}
		}
	],
	"meshes":[
		{
			"name":"Circle.128",
			"primitives":[
				{
					"attributes":{
						"POSITION":0,
						"NORMAL":1,
						"TEXCOORD_0":2,
						"TANGENT":3
					},
					"indices":4
				}
			]
		},
		{
			"name":"Circle.002",
			"primitives":[
				{
					"attributes":{
						"POSITION":5,
						"NORMAL":6,
						"TEXCOORD_0":7
					},
					"indices":8
				}
			]
		},
		{
			"name":"Circle.003",
			"primitives":[
				{
					"attributes":{
						"POSITION":9,
						"NORMAL":10,
						"TEXCOORD_0":11
					},
					"indices":8
				}
			]
		},
		{
			"name":"Circle.004",
			"primitives":[
				{
					"attributes":{
						"POSITION":12,
						"NORMAL":13,
						"TEXCOORD_0":14
					},
					"indices":8
				}
			]
		},
		{
			"name":"Circle.005",
			"primitives":[
				{
					"attributes":{
						"POSITION":15,
						"NORMAL":16,
						"TEXCOORD_0":17
					},
					"indices":8
				}
			]
		},
		{
			"name":"Circle.123",
			"primitives":[
				{
					"attributes":{
						"POSITION":18,
						"NORMAL":19,
						"TEXCOORD_0":20,
						"TANGENT":21
					},
					"indices":22,
					"material":0
				}
			]
		},
		{
			"name":"Circle.124",
			"primitives":[
				{
					"attributes":{
						"POSITION":23,
						"NORMAL":24,
						"TEXCOORD_0":25,
						"TANGENT":26
					},
					"indices":27,
					"material":0
				}
			]
		},
		{
			"name":"Circle.125",
			"primitives":[
				{
					"attributes":{
						"POSITION":28,
						"NORMAL":29,
						"TEXCOORD_0":30,
						"TANGENT":31
					},
					"indices":32,
					"material":0
				}
			]
		},
		{
			"name":"Circle.126",
			"primitives":[
				{
					"attributes":{
						"POSITION":33,
						"NORMAL":34,
						"TEXCOORD_0":35
					},
					"indices":36,
					"material":0
				}
			]
		},
		{
			"name":"Circle.127",
			"primitives":[
				{
					"attributes":{
						"POSITION":37,
						"NORMAL":38,
						"TEXCOORD_0":39
					},
					"indices":40,
					"material":1
				}
			]
		},
		{
			"name":"Circle.130",
			"primitives":[
				{
					"attributes":{
						"POSITION":41,
						"NORMAL":42,
						"TEXCOORD_0":43
					},
					"indices":44
				}
			]
		},
		{
			"name":"Circle.131",
			"primitives":[
				{
					"attributes":{
						"POSITION":45,
						"NORMAL":46,
						"TEXCOORD_0":47,
						"TANGENT":48
					},
					"indices":49,
					"material":1
				}
			]
		},
		{
			"name":"Circle.132",
			"primitives":[
				{
					"attributes":{
						"POSITION":50,
						"NORMAL":51,
						"TEXCOORD_0":52,
						"TANGENT":53
					},
					"indices":54,
					"material":1
				}
			]
		},
		{
			"name":"Circle.133",
			"primitives":[
				{
					"attributes":{
						"POSITION":55,
						"NORMAL":56,
						"TEXCOORD_0":57,
						"TANGENT":58
					},
					"indices":49,
					"material":1
				}
			]
		},
		{
			"name":"Circle.016",
			"primitives":[
				{
					"attributes":{
						"POSITION":59,
						"NORMAL":60,
						"TEXCOORD_0":61
					},
					"indices":62,
					"material":0
				}
			]
		}
	],
	"accessors":[
		{
			"bufferView":0,
			"componentType":5126,
			"count":720,
			"max":[
				1.0354927778244019,
				0.1485813856124878,
				1.0354927778244019
			],
			"min":[
				-1.0354927778244019,
				-0.5055496692657471,
				-1.0354927778244019
			],
			"type":"VEC3"
		},
		{
			"bufferView":1,
			"componentType":5126,
			"count":720,
			"type":"VEC3"
		},
		{
			"bufferView":2,
			"componentType":5126,
			"count":720,
			"type":"VEC2"
		},
		{
			"bufferView":3,
			"componentType":5126,
			"count":720,
			"type":"VEC4"
		},
		{
			"bufferView":4,
			"componentType":5123,
			"count":1104,
			"type":"SCALAR"
		},
		{
			"bufferView":5,
			"componentType":5126,
			"count":37,
			"max":[
				-0.9238795042037964,
				0.1485813856124878,
				0.43493467569351196
			],
			"min":[
				-1.1800000667572021,
				-0.5055496692657471,
				-0.43493467569351196
			],
			"type":"VEC3"
		},
		{
			"bufferView":6,
			"componentType":5126,
			"count":37,
			"type":"VEC3"
		},
		{
			"bufferView":7,
			"componentType":5126,
			"count":37,
			"type":"VEC2"
		},
		{
			"bufferView":8,
			"componentType":5123,
			"count":114,
			"type":"SCALAR"
		},
		{
			"bufferView":9,
			"componentType":5126,
			"count":37,
			"max":[
				-0.9238795042037964,
				0.1485813856124878,
				0.43493467569351196
			],
			"min":[
				-1.1800000667572021,
				-0.5055496692657471,
				-0.43493467569351196
			],
			"type":"VEC3"
		},
		{
			"bufferView":10,
			"componentType":5126,
			"count":37,
			"type":"VEC3"
		},
		{
			"bufferView":11,
			"componentType":5126,
			"count":37,
			"type":"VEC2"
		},
		{
			"bufferView":12,
			"componentType":5126,
			"count":37,
			"max":[
				-0.9238795042037964,
				0.1485813856124878,
				0.43493467569351196
			],
			"min":[
				-1.1800000667572021,
				-0.5055496692657471,
				-0.43493467569351196
			],
			"type":"VEC3"
		},
		{
			"bufferView":13,
			"componentType":5126,
			"count":37,
			"type":"VEC3"
		},
		{
			"bufferView":14,
			"componentType":5126,
			"count":37,
			"type":"VEC2"
		},
		{
			"bufferView":15,
			"componentType":5126,
			"count":37,
			"max":[
				-0.9238795042037964,
				0.1485813856124878,
				0.43493467569351196
			],
			"min":[
				-1.1800000667572021,
				-0.5055496692657471,
				-0.43493467569351196
			],
			"type":"VEC3"
		},
		{
			"bufferView":16,
			"componentType":5126,
			"count":37,
			"type":"VEC3"
		},
		{
			"bufferView":17,
			"componentType":5126,
			"count":37,
			"type":"VEC2"
		},
		{
			"bufferView":18,
			"componentType":5126,
			"count":1244,
			"max":[
				0.6702491641044617,
				-1.255232334136963,
				0.6702494621276855
			],
			"min":[
				-0.670248806476593,
				-1.4799996614456177,
				-0.6702485680580139
			],
			"type":"VEC3"
		},
		{
			"bufferView":19,
			"componentType":5126,
			"count":1244,
			"type":"VEC3"
		},
		{
			"bufferView":20,
			"componentType":5126,
			"count":1244,
			"type":"VEC2"
		},
		{
			"bufferView":21,
			"componentType":5126,
			"count":1244,
			"type":"VEC4"
		},
		{
			"bufferView":22,
			"componentType":5123,
			"count":1776,
			"type":"SCALAR"
		},
		{
			"bufferView":23,
			"componentType":5126,
			"count":887,
			"max":[
				0.7292572259902954,
				1.4800000190734863,
				0.7292570471763611
			],
			"min":[
				-0.7292572259902954,
				1.4594039916992188,
				-0.7292574048042297
			],
			"type":"VEC3"
		},
		{
			"bufferView":24,
			"componentType":5126,
			"count":887,
			"type":"VEC3"
		},
		{
			"bufferView":25,
			"componentType":5126,
			"count":887,
			"type":"VEC2"
		},
		{
			"bufferView":26,
			"componentType":5126,
			"count":887,
			"type":"VEC4"
		},
		{
			"bufferView":27,
			"componentType":5123,
			"count":1344,
			"type":"SCALAR"
		},
		{
			"bufferView":28,
			"componentType":5126,
			"count":1541,
			"max":[
				0.744107186794281,
				1.4800000190734863,
				0.7441072463989258
			],
			"min":[
				-0.7441069483757019,
				1.2399998903274536,
				-0.7441068887710571
			],
			"type":"VEC3"
		},
		{
			"bufferView":29,
			"componentType":5126,
			"count":1541,
			"type":"VEC3"
		},
		{
			"bufferView":30,
			"componentType":5126,
			"count":1541,
			"type":"VEC2"
		},
		{
			"bufferView":31,
			"componentType":5126,
			"count":1541,
			"type":"VEC4"
		},
		{
			"bufferView":32,
			"componentType":5123,
			"count":2256,
			"type":"SCALAR"
		},
		{
			"bufferView":33,
			"componentType":5126,
			"count":288,
			"max":[
				0.7042572498321533,
				1.4799998998641968,
				0.7042571902275085
			],
			"min":[
				-0.7042572498321533,
				1.279999852180481,
				-0.7042574286460876
			],
			"type":"VEC3"
		},
		{
			"bufferView":34,
			"componentType":5126,
			"count":288,
			"type":"VEC3"
		},
		{
			"bufferView":35,
			"componentType":5126,
			"count":288,
			"type":"VEC2"
		},
		{
			"bufferView":36,
			"componentType":5123,
			"count":474,
			"type":"SCALAR"
		},
		{
			"bufferView":37,
			"componentType":5126,
			"count":1216,
			"max":[
				1.0330874919891357,
				3.0085058212280273,
				1.0330873727798462
			],
			"min":[
				-1.0330874919891357,
				1.4799997806549072,
				-1.0330876111984253
			],
			"type":"VEC3"
		},
		{
			"bufferView":38,
			"componentType":5126,
			"count":1216,
			"type":"VEC3"
		},
		{
			"bufferView":39,
			"componentType":5126,
			"count":1216,
			"type":"VEC2"
		},
		{
			"bufferView":40,
			"componentType":5123,
			"count":1908,
			"type":"SCALAR"
		},
		{
			"bufferView":41,
			"componentType":5126,
			"count":148,
			"max":[
				0.8698647022247314,
				0,
				0.8698647022247314
			],
			"min":[
				-0.8698647022247314,
				-0.22768405079841614,
				-0.8698647022247314
			],
			"type":"VEC3"
		},
		{
			"bufferView":42,
			"componentType":5126,
			"count":148,
			"type":"VEC3"
		},
		{
			"bufferView":43,
			"componentType":5126,
			"count":148,
			"type":"VEC2"
		},
		{
			"bufferView":44,
			"componentType":5123,
			"count":888,
			"type":"SCALAR"
		},
		{
			"bufferView":45,
			"componentType":5126,
			"count":1024,
			"max":[
				1.0134068727493286,
				2.829091787338257,
				1.0134068727493286
			],
			"min":[
				-1.013406753540039,
				2.734442949295044,
				-1.013406753540039
			],
			"type":"VEC3"
		},
		{
			"bufferView":46,
			"componentType":5126,
			"count":1024,
			"type":"VEC3"
		},
		{
			"bufferView":47,
			"componentType":5126,
			"count":1024,
			"type":"VEC2"
		},
		{
			"bufferView":48,
			"componentType":5126,
			"count":1024,
			"type":"VEC4"
		},
		{
			"bufferView":49,
			"componentType":5123,
			"count":1536,
			"type":"SCALAR"
		},
		{
			"bufferView":50,
			"componentType":5126,
			"count":1024,
			"max":[
				1.0134068727493286,
				0.05712030455470085,
				1.0134069919586182
			],
			"min":[
				-1.013406753540039,
				-0.03752854838967323,
				-1.0134066343307495
			],
			"type":"VEC3"
		},
		{
			"bufferView":51,
			"componentType":5126,
			"count":1024,
			"type":"VEC3"
		},
		{
			"bufferView":52,
			"componentType":5126,
			"count":1024,
			"type":"VEC2"
		},
		{
			"bufferView":53,
			"componentType":5126,
			"count":1024,
			"type":"VEC4"
		},
		{
			"bufferView":54,
			"componentType":5123,
			"count":1536,
			"type":"SCALAR"
		},
		{
			"bufferView":55,
			"componentType":5126,
			"count":1024,
			"max":[
				0.8512445688247681,
				0.050360970199108124,
				0.8512446880340576
			],
			"min":[
				-0.8512445092201233,
				-0.03076949343085289,
				-0.8512443900108337
			],
			"type":"VEC3"
		},
		{
			"bufferView":56,
			"componentType":5126,
			"count":1024,
			"type":"VEC3"
		},
		{
			"bufferView":57,
			"componentType":5126,
			"count":1024,
			"type":"VEC2"
		},
		{
			"bufferView":58,
			"componentType":5126,
			"count":1024,
			"type":"VEC4"
		},
		{
			"bufferView":59,
			"componentType":5126,
			"count":6878,
			"max":[
				1.053246021270752,
				2.0245821475982666,
				1.0532461404800415
			],
			"min":[
				-1.053246021270752,
				-0.16356557607650757,
				-1.0532457828521729
			],
			"type":"VEC3"
		},
		{
			"bufferView":60,
			"componentType":5126,
			"count":6878,
			"type":"VEC3"
		},
		{
			"bufferView":61,
			"componentType":5126,
			"count":6878,
			"type":"VEC2"
		},
		{
			"bufferView":62,
			"componentType":5123,
			"count":11946,
			"type":"SCALAR"
		}
	],
	"bufferViews":[
		{
			"buffer":0,
			"byteLength":8640,
			"byteOffset":0,
			"target":34962
		},
		{
			"buffer":0,
			"byteLength":8640,
			"byteOffset":8640,
			"target":34962
		},
		{
			"buffer":0,
			"byteLength":5760,
			"byteOffset":17280,
			"target":34962
		},
		{
			"buffer":0,
			"byteLength":11520,
			"byteOffset":23040,
			"target":34962
		},
		{
			"buffer":0,
			"byteLength":2208,
			"byteOffset":34560,
			"target":34963
		},
		{
			"buffer":0,
			"byteLength":444,
			"byteOffset":36768,
			"target":34962
		},
		{
			"buffer":0,
			"byteLength":444,
			"byteOffset":37212,
			"target":34962
		},
		{
			"buffer":0,
			"byteLength":296,
			"byteOffset":37656,
			"target":34962
		},
		{
			"buffer":0,
			"byteLength":228,
			"byteOffset":37952,
			"target":34963
		},
		{
			"buffer":0,
			"byteLength":444,
			"byteOffset":38180,
			"target":34962
		},
		{
			"buffer":0,
			"byteLength":444,
			"byteOffset":38624,
			"target":34962
		},
		{
			"buffer":0,
			"byteLength":296,
			"byteOffset":39068,
			"target":34962
		},
		{
			"buffer":0,
			"byteLength":444,
			"byteOffset":39364,
			"target":34962
		},
		{
			"buffer":0,
			"byteLength":444,
			"byteOffset":39808,
			"target":34962
		},
		{
			"buffer":0,
			"byteLength":296,
			"byteOffset":40252,
			"target":34962
		},
		{
			"buffer":0,
			"byteLength":444,
			"byteOffset":40548,
			"target":34962
		},
		{
			"buffer":0,
			"byteLength":444,
			"byteOffset":40992,
			"target":34962
		},
		{
			"buffer":0,
			"byteLength":296,
			"byteOffset":41436,
			"target":34962
		},
		{
			"buffer":0,
			"byteLength":14928,
			"byteOffset":41732,
			"target":34962
		},
		{
			"buffer":0,
			"byteLength":14928,
			"byteOffset":56660,
			"target":34962
		},
		{
			"buffer":0,
			"byteLength":9952,
			"byteOffset":71588,
			"target":34962
		},
		{
			"buffer":0,
			"byteLength":19904,
			"byteOffset":81540,
			"target":34962
		},
		{
			"buffer":0,
			"byteLength":3552,
			"byteOffset":101444,
			"target":34963
		},
		{
			"buffer":0,
			"byteLength":10644,
			"byteOffset":104996,
			"target":34962
		},
		{
			"buffer":0,
			"byteLength":10644,
			"byteOffset":115640,
			"target":34962
		},
		{
			"buffer":0,
			"byteLength":7096,
			"byteOffset":126284,
			"target":34962
		},
		{
			"buffer":0,
			"byteLength":14192,
			"byteOffset":133380,
			"target":34962
		},
		{
			"buffer":0,
			"byteLength":2688,
			"byteOffset":147572,
			"target":34963
		},
		{
			"buffer":0,
			"byteLength":18492,
			"byteOffset":150260,
			"target":34962
		},
		{
			"buffer":0,
			"byteLength":18492,
			"byteOffset":168752,
			"target":34962
		},
		{
			"buffer":0,
			"byteLength":12328,
			"byteOffset":187244,
			"target":34962
		},
		{
			"buffer":0,
			"byteLength":24656,
			"byteOffset":199572,
			"target":34962
		},
		{
			"buffer":0,
			"byteLength":4512,
			"byteOffset":224228,
			"target":34963
		},
		{
			"buffer":0,
			"byteLength":3456,
			"byteOffset":228740,
			"target":34962
		},
		{
			"buffer":0,
			"byteLength":3456,
			"byteOffset":232196,
			"target":34962
		},
		{
			"buffer":0,
			"byteLength":2304,
			"byteOffset":235652,
			"target":34962
		},
		{
			"buffer":0,
			"byteLength":948,
			"byteOffset":237956,
			"target":34963
		},
		{
			"buffer":0,
			"byteLength":14592,
			"byteOffset":238904,
			"target":34962
		},
		{
			"buffer":0,
			"byteLength":14592,
			"byteOffset":253496,
			"target":34962
		},
		{
			"buffer":0,
			"byteLength":9728,
			"byteOffset":268088,
			"target":34962
		},
		{
			"buffer":0,
			"byteLength":3816,
			"byteOffset":277816,
			"target":34963
		},
		{
			"buffer":0,
			"byteLength":1776,
			"byteOffset":281632,
			"target":34962
		},
		{
			"buffer":0,
			"byteLength":1776,
			"byteOffset":283408,
			"target":34962
		},
		{
			"buffer":0,
			"byteLength":1184,
			"byteOffset":285184,
			"target":34962
		},
		{
			"buffer":0,
			"byteLength":1776,
			"byteOffset":286368,
			"target":34963
		},
		{
			"buffer":0,
			"byteLength":12288,
			"byteOffset":288144,
			"target":34962
		},
		{
			"buffer":0,
			"byteLength":12288,
			"byteOffset":300432,
			"target":34962
		},
		{
			"buffer":0,
			"byteLength":8192,
			"byteOffset":312720,
			"target":34962
		},
		{
			"buffer":0,
			"byteLength":16384,
			"byteOffset":320912,
			"target":34962
		},
		{
			"buffer":0,
			"byteLength":3072,
			"byteOffset":337296,
			"target":34963
		},
		{
			"buffer":0,
			"byteLength":12288,
			"byteOffset":340368,
			"target":34962
		},
		{
			"buffer":0,
			"byteLength":12288,
			"byteOffset":352656,
			"target":34962
		},
		{
			"buffer":0,
			"byteLength":8192,
			"byteOffset":364944,
			"target":34962
		},
		{
			"buffer":0,
			"byteLength":16384,
			"byteOffset":373136,
			"target":34962
		},
		{
			"buffer":0,
			"byteLength":3072,
			"byteOffset":389520,
			"target":34963
		},
		{
			"buffer":0,
			"byteLength":12288,
			"byteOffset":392592,
			"target":34962
		},
		{
			"buffer":0,
			"byteLength":12288,
			"byteOffset":404880,
			"target":34962
		},
		{
			"buffer":0,
			"byteLength":8192,
			"byteOffset":417168,
			"target":34962
		},
		{
			"buffer":0,
			"byteLength":16384,
			"byteOffset":425360,
			"target":34962
		},
		{
			"buffer":0,
			"byteLength":82536,
			"byteOffset":441744,
			"target":34962
		},
		{
			"buffer":0,
			"byteLength":82536,
			"byteOffset":524280,
			"target":34962
		},
		{
			"buffer":0,
			"byteLength":55024,
			"byteOffset":606816,
			"target":34962
		},
		{
			"buffer":0,
			"byteLength":23892,
			"byteOffset":661840,
			"target":34963
		}
	],
	"buffers":[
		{
			"byteLength":685732,
			"uri":"thruster_Module-23cf4817ad121c22a3a4d70b1c419e4a.bin"
		}
	]
}
