{
	"asset":{
		"generator":"Khronos glTF Blender I/O v4.3.47",
		"version":"2.0"
	},
	"scene":0,
	"scenes":[
		{
			"extras":{
				"td":{
					"density_set":"0.64",
					"uv_space":"335.4292 %",
					"density":"0.640"
				}
			},
			"name":"Scene",
			"nodes":[
				0
			]
		}
	],
	"nodes":[
		{
			"extras":{
				"ant_landscape":{}
			},
			"mesh":0,
			"name":"Winter Tree.009",
			"translation":[
				0.1408756971359253,
				7.112881183624268,
				-0.7341597080230713
			]
		}
	],
	"materials":[
		{
			"doubleSided":true,
			"name":"Tree"
		}
	],
	"meshes":[
		{
			"name":"BezierCurve.002",
			"primitives":[
				{
					"attributes":{
						"POSITION":0,
						"NORMAL":1,
						"TEXCOORD_0":2,
						"TEXCOORD_1":3,
						"TEXCOORD_2":4
					},
					"indices":5,
					"material":0
				}
			]
		}
	],
	"accessors":[
		{
			"bufferView":0,
			"componentType":5126,
			"count":3790,
			"max":[
				4.683495998382568,
				9.324984550476074,
				5.3980560302734375
			],
			"min":[
				-5.015244007110596,
				-7.666439056396484,
				-6.188755035400391
			],
			"type":"VEC3"
		},
		{
			"bufferView":1,
			"componentType":5126,
			"count":3790,
			"type":"VEC3"
		},
		{
			"bufferView":2,
			"componentType":5126,
			"count":3790,
			"type":"VEC2"
		},
		{
			"bufferView":3,
			"componentType":5126,
			"count":3790,
			"type":"VEC2"
		},
		{
			"bufferView":4,
			"componentType":5126,
			"count":3790,
			"type":"VEC2"
		},
		{
			"bufferView":5,
			"componentType":5123,
			"count":16293,
			"type":"SCALAR"
		}
	],
	"bufferViews":[
		{
			"buffer":0,
			"byteLength":45480,
			"byteOffset":0,
			"target":34962
		},
		{
			"buffer":0,
			"byteLength":45480,
			"byteOffset":45480,
			"target":34962
		},
		{
			"buffer":0,
			"byteLength":30320,
			"byteOffset":90960,
			"target":34962
		},
		{
			"buffer":0,
			"byteLength":30320,
			"byteOffset":121280,
			"target":34962
		},
		{
			"buffer":0,
			"byteLength":30320,
			"byteOffset":151600,
			"target":34962
		},
		{
			"buffer":0,
			"byteLength":32586,
			"byteOffset":181920,
			"target":34963
		}
	],
	"buffers":[
		{
			"byteLength":214508,
			"uri":"Tree-Texture-77c4e8a90537f5e3fcf5097d8bd7c7b3.bin"
		}
	]
}
